<svg width="672" height="485" viewBox="0 0 672 485" xmlns="http://www.w3.org/2000/svg">
  <rect width="672" height="485" fill="#ffffff"/>

  <!-- Main body diagrams -->
  <!-- Front view male -->
  <g transform="translate(20, 20)">
    <text x="35" y="10" font-family="Arial" font-size="12" fill="#333">Depan</text>
    <!-- Head -->
    <ellipse cx="35" cy="35" rx="12" ry="15" fill="none" stroke="#333" stroke-width="1"/>
    <!-- Neck -->
    <rect x="31" y="50" width="8" height="10" fill="none" stroke="#333" stroke-width="1"/>
    <!-- Torso -->
    <rect x="20" y="60" width="30" height="60" rx="5" fill="none" stroke="#333" stroke-width="1"/>
    <!-- Arms -->
    <rect x="5" y="70" width="10" height="40" fill="none" stroke="#333" stroke-width="1"/>
    <rect x="55" y="70" width="10" height="40" fill="none" stroke="#333" stroke-width="1"/>
    <!-- Hands -->
    <ellipse cx="10" cy="115" rx="3" ry="5" fill="none" stroke="#333" stroke-width="1"/>
    <ellipse cx="60" cy="115" rx="3" ry="5" fill="none" stroke="#333" stroke-width="1"/>
    <!-- Pelvis -->
    <rect x="22" y="120" width="26" height="20" fill="none" stroke="#333" stroke-width="1"/>
    <!-- Legs -->
    <rect x="25" y="140" width="8" height="50" fill="none" stroke="#333" stroke-width="1"/>
    <rect x="37" y="140" width="8" height="50" fill="none" stroke="#333" stroke-width="1"/>
    <!-- Feet -->
    <ellipse cx="29" cy="195" rx="5" ry="3" fill="none" stroke="#333" stroke-width="1"/>
    <ellipse cx="41" cy="195" rx="5" ry="3" fill="none" stroke="#333" stroke-width="1"/>
  </g>

  <!-- Back view male -->
  <g transform="translate(120, 20)">
    <text x="35" y="10" font-family="Arial" font-size="12" fill="#333">Bel</text>
    <!-- Head -->
    <ellipse cx="35" cy="35" rx="12" ry="15" fill="none" stroke="#333" stroke-width="1"/>
    <!-- Neck -->
    <rect x="31" y="50" width="8" height="10" fill="none" stroke="#333" stroke-width="1"/>
    <!-- Torso -->
    <rect x="20" y="60" width="30" height="60" rx="5" fill="none" stroke="#333" stroke-width="1"/>
    <!-- Arms -->
    <rect x="5" y="70" width="10" height="40" fill="none" stroke="#333" stroke-width="1"/>
    <rect x="55" y="70" width="10" height="40" fill="none" stroke="#333" stroke-width="1"/>
    <!-- Hands -->
    <ellipse cx="10" cy="115" rx="3" ry="5" fill="none" stroke="#333" stroke-width="1"/>
    <ellipse cx="60" cy="115" rx="3" ry="5" fill="none" stroke="#333" stroke-width="1"/>
    <!-- Pelvis -->
    <rect x="22" y="120" width="26" height="20" fill="none" stroke="#333" stroke-width="1"/>
    <!-- Legs -->
    <rect x="25" y="140" width="8" height="50" fill="none" stroke="#333" stroke-width="1"/>
    <rect x="37" y="140" width="8" height="50" fill="none" stroke="#333" stroke-width="1"/>
    <!-- Feet -->
    <ellipse cx="29" cy="195" rx="5" ry="3" fill="none" stroke="#333" stroke-width="1"/>
    <ellipse cx="41" cy="195" rx="5" ry="3" fill="none" stroke="#333" stroke-width="1"/>
  </g>

  <!-- Head views -->
  <g transform="translate(250, 20)">
    <text x="30" y="10" font-family="Arial" font-size="12" fill="#333">Kepala</text>
    <!-- Front head -->
    <ellipse cx="30" cy="40" rx="18" ry="25" fill="none" stroke="#333" stroke-width="1"/>
    <circle cx="25" cy="35" r="2" fill="#333"/>
    <circle cx="35" cy="35" r="2" fill="#333"/>
    <line x1="28" y1="42" x2="32" y2="42" stroke="#333" stroke-width="1"/>
    <ellipse cx="30" cy="48" rx="4" ry="2" fill="none" stroke="#333" stroke-width="1"/>
  </g>

  <g transform="translate(320, 20)">
    <text x="25" y="10" font-family="Arial" font-size="12" fill="#333">Kiri</text>
    <!-- Side head -->
    <ellipse cx="25" cy="40" rx="15" ry="25" fill="none" stroke="#333" stroke-width="1"/>
    <circle cx="30" cy="35" r="2" fill="#333"/>
    <line x1="32" y1="42" x2="36" y2="42" stroke="#333" stroke-width="1"/>
    <path d="M20 48 Q25 50 30 48" fill="none" stroke="#333" stroke-width="1"/>
  </g>

  <g transform="translate(380, 20)">
    <text x="25" y="10" font-family="Arial" font-size="12" fill="#333">Sisi</text>
    <!-- Profile head -->
    <path d="M15 20 Q35 15 45 30 Q45 50 35 65 Q25 68 15 65 Q8 55 8 42 Q8 30 15 20" fill="none" stroke="#333" stroke-width="1"/>
    <circle cx="32" cy="35" r="2" fill="#333"/>
    <line x1="28" y1="42" x2="32" y2="42" stroke="#333" stroke-width="1"/>
  </g>

  <g transform="translate(450, 20)">
    <text x="25" y="10" font-family="Arial" font-size="12" fill="#333">Kanan</text>
    <!-- Side head opposite -->
    <ellipse cx="25" cy="40" rx="15" ry="25" fill="none" stroke="#333" stroke-width="1"/>
    <circle cx="20" cy="35" r="2" fill="#333"/>
    <line x1="14" y1="42" x2="18" y2="42" stroke="#333" stroke-width="1"/>
    <path d="M20 48 Q25 50 30 48" fill="none" stroke="#333" stroke-width="1"/>
  </g>

  <!-- Female body diagrams -->
  <g transform="translate(20, 250)">
    <text x="35" y="10" font-family="Arial" font-size="12" fill="#333">Wanita</text>
    <!-- Head -->
    <ellipse cx="35" cy="35" rx="12" ry="15" fill="none" stroke="#333" stroke-width="1"/>
    <!-- Neck -->
    <rect x="31" y="50" width="8" height="10" fill="none" stroke="#333" stroke-width="1"/>
    <!-- Torso -->
    <path d="M20 60 L50 60 L48 100 L52 120 L18 120 L22 100 Z" fill="none" stroke="#333" stroke-width="1"/>
    <!-- Breasts -->
    <circle cx="28" cy="75" r="6" fill="none" stroke="#333" stroke-width="1"/>
    <circle cx="42" cy="75" r="6" fill="none" stroke="#333" stroke-width="1"/>
    <!-- Arms -->
    <rect x="5" y="70" width="10" height="40" fill="none" stroke="#333" stroke-width="1"/>
    <rect x="55" y="70" width="10" height="40" fill="none" stroke="#333" stroke-width="1"/>
    <!-- Hands -->
    <ellipse cx="10" cy="115" rx="3" ry="5" fill="none" stroke="#333" stroke-width="1"/>
    <ellipse cx="60" cy="115" rx="3" ry="5" fill="none" stroke="#333" stroke-width="1"/>
    <!-- Pelvis -->
    <path d="M22 120 L48 120 L45 140 L25 140 Z" fill="none" stroke="#333" stroke-width="1"/>
    <!-- Legs -->
    <rect x="25" y="140" width="8" height="50" fill="none" stroke="#333" stroke-width="1"/>
    <rect x="37" y="140" width="8" height="50" fill="none" stroke="#333" stroke-width="1"/>
    <!-- Feet -->
    <ellipse cx="29" cy="195" rx="5" ry="3" fill="none" stroke="#333" stroke-width="1"/>
    <ellipse cx="41" cy="195" rx="5" ry="3" fill="none" stroke="#333" stroke-width="1"/>
  </g>

  <g transform="translate(120, 250)">
    <text x="35" y="10" font-family="Arial" font-size="12" fill="#333">Bel</text>
    <!-- Back view female -->
    <ellipse cx="35" cy="35" rx="12" ry="15" fill="none" stroke="#333" stroke-width="1"/>
    <rect x="31" y="50" width="8" height="10" fill="none" stroke="#333" stroke-width="1"/>
    <rect x="20" y="60" width="30" height="60" rx="5" fill="none" stroke="#333" stroke-width="1"/>
    <rect x="5" y="70" width="10" height="40" fill="none" stroke="#333" stroke-width="1"/>
    <rect x="55" y="70" width="10" height="40" fill="none" stroke="#333" stroke-width="1"/>
    <ellipse cx="10" cy="115" rx="3" ry="5" fill="none" stroke="#333" stroke-width="1"/>
    <ellipse cx="60" cy="115" rx="3" ry="5" fill="none" stroke="#333" stroke-width="1"/>
    <rect x="22" y="120" width="26" height="20" fill="none" stroke="#333" stroke-width="1"/>
    <rect x="25" y="140" width="8" height="50" fill="none" stroke="#333" stroke-width="1"/>
    <rect x="37" y="140" width="8" height="50" fill="none" stroke="#333" stroke-width="1"/>
    <ellipse cx="29" cy="195" rx="5" ry="3" fill="none" stroke="#333" stroke-width="1"/>
    <ellipse cx="41" cy="195" rx="5" ry="3" fill="none" stroke="#333" stroke-width="1"/>
  </g>

  <!-- Hand diagrams -->
  <g transform="translate(250, 250)">
    <text x="25" y="10" font-family="Arial" font-size="12" fill="#333">Tangan</text>
    <!-- Palm -->
    <ellipse cx="25" cy="50" rx="15" ry="20" fill="none" stroke="#333" stroke-width="1"/>
    <!-- Fingers -->
    <rect x="15" y="25" width="3" height="15" fill="none" stroke="#333" stroke-width="1"/>
    <rect x="20" y="20" width="3" height="20" fill="none" stroke="#333" stroke-width="1"/>
    <rect x="25" y="20" width="3" height="20" fill="none" stroke="#333" stroke-width="1"/>
    <rect x="30" y="25" width="3" height="15" fill="none" stroke="#333" stroke-width="1"/>
    <!-- Thumb -->
    <ellipse cx="12" cy="45" rx="3" ry="8" fill="none" stroke="#333" stroke-width="1"/>
  </g>

  <g transform="translate(320, 250)">
    <text x="25" y="10" font-family="Arial" font-size="12" fill="#333">Kanan</text>
    <!-- Right hand -->
    <ellipse cx="25" cy="50" rx="15" ry="20" fill="none" stroke="#333" stroke-width="1"/>
    <rect x="15" y="25" width="3" height="15" fill="none" stroke="#333" stroke-width="1"/>
    <rect x="20" y="20" width="3" height="20" fill="none" stroke="#333" stroke-width="1"/>
    <rect x="25" y="20" width="3" height="20" fill="none" stroke="#333" stroke-width="1"/>
    <rect x="30" y="25" width="3" height="15" fill="none" stroke="#333" stroke-width="1"/>
    <ellipse cx="38" cy="45" rx="3" ry="8" fill="none" stroke="#333" stroke-width="1"/>
  </g>

  <g transform="translate(390, 250)">
    <text x="25" y="10" font-family="Arial" font-size="12" fill="#333">Kiri</text>
    <!-- Left hand -->
    <ellipse cx="25" cy="50" rx="15" ry="20" fill="none" stroke="#333" stroke-width="1"/>
    <rect x="15" y="25" width="3" height="15" fill="none" stroke="#333" stroke-width="1"/>
    <rect x="20" y="20" width="3" height="20" fill="none" stroke="#333" stroke-width="1"/>
    <rect x="25" y="20" width="3" height="20" fill="none" stroke="#333" stroke-width="1"/>
    <rect x="30" y="25" width="3" height="15" fill="none" stroke="#333" stroke-width="1"/>
    <ellipse cx="12" cy="45" rx="3" ry="8" fill="none" stroke="#333" stroke-width="1"/>
  </g>

  <g transform="translate(460, 250)">
    <text x="25" y="10" font-family="Arial" font-size="12" fill="#333">Kanan</text>
    <!-- Right hand back -->
    <ellipse cx="25" cy="50" rx="15" ry="20" fill="none" stroke="#333" stroke-width="1"/>
    <rect x="15" y="25" width="3" height="15" fill="none" stroke="#333" stroke-width="1"/>
    <rect x="20" y="20" width="3" height="20" fill="none" stroke="#333" stroke-width="1"/>
    <rect x="25" y="20" width="3" height="20" fill="none" stroke="#333" stroke-width="1"/>
    <rect x="30" y="25" width="3" height="15" fill="none" stroke="#333" stroke-width="1"/>
    <ellipse cx="38" cy="45" rx="3" ry="8" fill="none" stroke="#333" stroke-width="1"/>
  </g>

  <!-- Foot diagrams -->
  <g transform="translate(250, 380)">
    <text x="20" y="10" font-family="Arial" font-size="12" fill="#333">Kaki</text>
    <!-- Left foot -->
    <ellipse cx="20" cy="35" rx="12" ry="20" fill="none" stroke="#333" stroke-width="1"/>
    <!-- Toes -->
    <circle cx="15" cy="20" r="2" fill="none" stroke="#333" stroke-width="1"/>
    <circle cx="18" cy="18" r="2" fill="none" stroke="#333" stroke-width="1"/>
    <circle cx="22" cy="18" r="2" fill="none" stroke="#333" stroke-width="1"/>
    <circle cx="25" cy="20" r="2" fill="none" stroke="#333" stroke-width="1"/>
    <circle cx="28" cy="22" r="1.5" fill="none" stroke="#333" stroke-width="1"/>
  </g>

  <g transform="translate(320, 380)">
    <text x="20" y="10" font-family="Arial" font-size="12" fill="#333">Kanan</text>
    <!-- Right foot -->
    <ellipse cx="20" cy="35" rx="12" ry="20" fill="none" stroke="#333" stroke-width="1"/>
    <circle cx="25" cy="20" r="2" fill="none" stroke="#333" stroke-width="1"/>
    <circle cx="22" cy="18" r="2" fill="none" stroke="#333" stroke-width="1"/>
    <circle cx="18" cy="18" r="2" fill="none" stroke="#333" stroke-width="1"/>
    <circle cx="15" cy="20" r="2" fill="none" stroke="#333" stroke-width="1"/>
    <circle cx="12" cy="22" r="1.5" fill="none" stroke="#333" stroke-width="1"/>
  </g>

  <g transform="translate(390, 380)">
    <text x="20" y="10" font-family="Arial" font-size="12" fill="#333">Kiri</text>
    <!-- Left foot side -->
    <path d="M10 25 Q30 20 35 35 Q35 50 25 55 Q10 55 5 45 Q5 35 10 25" fill="none" stroke="#333" stroke-width="1"/>
    <circle cx="30" cy="25" r="2" fill="none" stroke="#333" stroke-width="1"/>
    <circle cx="28" cy="23" r="1.5" fill="none" stroke="#333" stroke-width="1"/>
    <circle cx="26" cy="23" r="1.5" fill="none" stroke="#333" stroke-width="1"/>
    <circle cx="24" cy="24" r="1.5" fill="none" stroke="#333" stroke-width="1"/>
    <circle cx="22" cy="25" r="1" fill="none" stroke="#333" stroke-width="1"/>
  </g>

  <g transform="translate(460, 380)">
    <text x="20" y="10" font-family="Arial" font-size="12" fill="#333">Kanan</text>
    <!-- Right foot side -->
    <path d="M30 25 Q10 20 5 35 Q5 50 15 55 Q30 55 35 45 Q35 35 30 25" fill="none" stroke="#333" stroke-width="1"/>
    <circle cx="10" cy="25" r="2" fill="none" stroke="#333" stroke-width="1"/>
    <circle cx="12" cy="23" r="1.5" fill="none" stroke="#333" stroke-width="1"/>
    <circle cx="14" cy="23" r="1.5" fill="none" stroke="#333" stroke-width="1"/>
    <circle cx="16" cy="24" r="1.5" fill="none" stroke="#333" stroke-width="1"/>
    <circle cx="18" cy="25" r="1" fill="none" stroke="#333" stroke-width="1"/>
  </g>
</svg>
