<?xml version="1.0" encoding="UTF-8"?>
<svg version="1.1" xmlns="http://www.w3.org/2000/svg" width="690" height="641">
<path d="M0 0 C1.19662262 -0.00503792 1.19662262 -0.00503792 2.41741943 -0.01017761 C5.02650551 -0.01959658 7.63552694 -0.02162528 10.24462891 -0.02270508 C12.06686428 -0.025921 13.88909939 -0.02928532 15.71133423 -0.03279114 C19.51557007 -0.03875752 23.31978325 -0.04063331 27.12402344 -0.04003906 C32.00674454 -0.0399369 36.88932199 -0.05365599 41.7720089 -0.07081127 C45.5276863 -0.08189987 49.28332843 -0.08395934 53.03902054 -0.08342934 C54.84041469 -0.08461163 56.64180969 -0.08904727 58.44318771 -0.0967617 C60.95181346 -0.10651 63.46011961 -0.10370559 65.96875 -0.09765625 C66.71575165 -0.10327576 67.4627533 -0.10889526 68.23239136 -0.11468506 C73.36786674 -0.08306099 73.36786674 -0.08306099 75.59619141 2.14526367 C77.59180051 10.8365222 76.76008959 20.47502703 76.76416016 29.36010742 C76.76738086 31.02340218 76.77074551 32.68669666 76.77424622 34.34999084 C76.78020424 37.82203833 76.78208946 41.29406105 76.78149414 44.76611328 C76.78139249 49.18828554 76.79506246 53.61029734 76.81226635 58.0324316 C76.82344787 61.46335056 76.8254115 64.8942314 76.82488441 68.3251667 C76.82605459 69.95444862 76.83042143 71.58373184 76.83821678 73.21299553 C76.87650093 82.03723803 76.66113533 90.50663487 74.59619141 99.14526367 C75.25619141 98.81526367 75.91619141 98.48526367 76.59619141 98.14526367 C77.95741167 98.06089192 79.32272455 98.03802591 80.68652344 98.04760742 C81.53969147 98.05086533 82.3928595 98.05412323 83.2718811 98.05747986 C84.20648163 98.06582352 85.14108215 98.07416718 86.10400391 98.08276367 C88.12548772 98.09144042 90.14697213 98.09997931 92.16845703 98.10839844 C93.23749268 98.11461212 94.30652832 98.12082581 95.40795898 98.12722778 C112.97658881 98.22286425 130.53267088 98.15419821 148.09619141 97.70776367 C148.92781799 97.6880249 149.75944458 97.66828613 150.61627197 97.64794922 C158.65057242 97.45333362 166.62235769 97.23343593 174.59619141 96.14526367 C176.81667556 99.4759899 176.96409059 101.02689809 177.26416016 104.94995117 C177.35246094 106.09077148 177.44076172 107.2315918 177.53173828 108.40698242 C177.61488281 109.59936523 177.69802734 110.79174805 177.78369141 112.02026367 C177.8784375 113.20491211 177.97318359 114.38956055 178.07080078 115.61010742 C178.72839372 124.51522098 178.72839372 124.51522098 178.10270691 127.49708557 C177.58181176 130.22044372 177.49561737 132.65323124 177.53027344 135.42285156 C177.54491135 136.96453758 177.54491135 136.96453758 177.55984497 138.53736877 C177.58170364 140.18599159 177.58170364 140.18599159 177.60400391 141.86791992 C177.62151385 144.20320208 177.63842273 146.53848881 177.65478516 148.8737793 C177.68580202 152.54977024 177.72141457 156.22553345 177.76757812 159.90136719 C177.80983668 163.45274744 177.8333305 167.00385738 177.85400391 170.55541992 C177.88193527 172.20707909 177.88193527 172.20707909 177.91043091 173.8921051 C177.91388519 174.91674362 177.91733948 175.94138214 177.92089844 176.99707031 C177.93057648 177.89688126 177.94025452 178.7966922 177.95022583 179.72377014 C177.52325454 182.64413086 176.60813437 184.01574248 174.59619141 186.14526367 C172.57495117 186.49169922 172.57495117 186.49169922 170.28759766 186.28198242 C169.45808594 186.21946289 168.62857422 186.15694336 167.77392578 186.0925293 C166.91089844 186.00680664 166.04787109 185.92108398 165.15869141 185.83276367 C163.45210931 185.68553416 161.74507629 185.54342175 160.03759766 185.40698242 C159.28164307 185.33439209 158.52568848 185.26180176 157.74682617 185.18701172 C155.50269053 185.14344864 153.75160812 185.56214898 151.59619141 186.14526367 C149.94542869 186.03789699 148.29794144 185.86753486 146.65869141 185.64526367 C143.73078977 185.29752169 141.69247087 185.12600778 138.78369141 185.70776367 C135.87264259 186.28997344 134.21544781 185.41747392 131.59619141 184.14526367 C131.26619141 184.80526367 130.93619141 185.46526367 130.59619141 186.14526367 C130.08056641 185.98026367 129.56494141 185.81526367 129.03369141 185.64526367 C124.71909989 184.76021926 120.77492992 184.75235083 116.59619141 186.14526367 C113.68185603 186.25456962 110.79215066 186.30931595 107.87744141 186.31323242 C107.02315552 186.31656082 106.16886963 186.31988922 105.28869629 186.32331848 C103.48315977 186.32837921 101.67761391 186.33072707 99.87207031 186.33056641 C97.10677763 186.33275529 94.34188238 186.35092643 91.57666016 186.36987305 C89.82275527 186.37280663 88.06884849 186.37479166 86.31494141 186.37573242 C85.48675903 186.38291794 84.65857666 186.39010345 83.80529785 186.39750671 C79.88592959 186.38186467 77.93137038 186.36871632 74.59619141 184.14526367 C74.87359208 188.25052606 75.17054345 192.35414349 75.47119141 196.45776367 C75.54982422 197.62500977 75.62845703 198.79225586 75.70947266 199.99487305 C75.79326172 201.11313477 75.87705078 202.23139648 75.96337891 203.38354492 C76.03669434 204.41519775 76.11000977 205.44685059 76.18554688 206.50976562 C76.4421152 209.36913686 76.4421152 209.36913686 78.59619141 212.14526367 C79.22119141 214.33276367 79.22119141 214.33276367 79.59619141 216.14526367 C78.93619141 216.47526367 78.27619141 216.80526367 77.59619141 217.14526367 C76.94064021 219.67259602 76.94064021 219.67259602 76.59619141 222.14526367 C77.58619141 222.14526367 78.57619141 222.14526367 79.59619141 222.14526367 C79.59619141 223.46526367 79.59619141 224.78526367 79.59619141 226.14526367 C78.93619141 226.47526367 78.27619141 226.80526367 77.59619141 227.14526367 C76.42767591 232.69216508 76.4940827 238.15821316 76.56884766 243.80541992 C76.58148794 245.6693504 76.59384934 247.53328278 76.60595703 249.3972168 C76.63079485 252.30914383 76.65884241 255.22096944 76.69213867 258.1328125 C76.7224078 260.96118806 76.74012907 263.78943375 76.75634766 266.61791992 C76.77653709 267.91657738 76.77653709 267.91657738 76.7971344 269.24147034 C76.81633733 273.88952316 76.68609033 277.8819357 74.59619141 282.14526367 C71.00415281 284.45493676 68.49886341 284.03266329 64.331604 283.45605469 C58.73624442 282.82032336 53.08894574 282.92346647 47.46337891 282.86401367 C46.09969426 282.84591354 44.73601625 282.82730807 43.37234497 282.80822754 C39.07201619 282.74904306 34.77161828 282.69674774 30.47119141 282.64526367 C25.4995219 282.58542145 20.52791871 282.52256565 15.55636978 282.4533844 C13.59433253 282.42741956 11.63223288 282.40630998 9.6701355 282.38537598 C-15.50555869 282.04351358 -15.50555869 282.04351358 -17.40380859 280.14526367 C-17.53305958 278.1004915 -17.59238799 276.0512791 -17.625 274.00268555 C-17.64225883 273.03857758 -17.64225883 273.03857758 -17.65986633 272.05499268 C-17.69681386 269.90804929 -17.72636536 267.76107811 -17.75537109 265.61401367 C-17.77852494 264.10591275 -17.8019155 262.59781544 -17.82553101 261.08972168 C-17.87416735 257.90514933 -17.91901202 254.72054975 -17.96142578 251.53588867 C-18.00460529 248.31833418 -18.05297888 245.10093666 -18.10693359 241.88354492 C-18.42465927 222.92974461 -18.4826908 204.08212216 -17.40380859 185.14526367 C-18.02551941 185.21631821 -18.64723022 185.28737274 -19.28778076 185.36058044 C-29.67891179 186.39492323 -40.05256101 186.27140081 -50.48193359 186.24291992 C-52.50502487 186.24105144 -54.5281166 186.23962957 -56.5512085 186.2386322 C-61.83812746 186.23484086 -67.1250183 186.22504001 -72.41192627 186.21392822 C-77.82197693 186.20364083 -83.23203219 186.19911898 -88.64208984 186.1940918 C-99.22934168 186.18341424 -109.81657279 186.16637915 -120.40380859 186.14526367 C-122.29245645 181.38635471 -122.65412811 177.17400076 -122.5390625 172.12036133 C-122.52960098 171.33919952 -122.52013947 170.55803772 -122.51039124 169.75320435 C-122.4768924 167.18833084 -122.4287293 164.62395888 -122.38037109 162.05932617 C-122.35418547 160.27429489 -122.32891996 158.4892499 -122.30453491 156.70419312 C-122.23806512 152.01872323 -122.15913344 147.33354374 -122.07757568 142.64831543 C-121.99647838 137.86225482 -121.92720872 133.0760245 -121.85693359 128.28979492 C-121.71744546 118.90808112 -121.56478709 109.52663162 -121.40380859 100.14526367 C-118.61491561 98.58753606 -116.5007191 97.87593568 -113.31439209 97.7346344 C-112.52423832 97.69638267 -111.73408455 97.65813093 -110.91998672 97.61872005 C-110.07385693 97.58824361 -109.22772713 97.55776716 -108.35595703 97.52636719 C-107.4685873 97.48869767 -106.58121758 97.45102816 -105.66695786 97.41221714 C-96.50104687 97.05325629 -87.34090635 97.01786058 -78.16943359 97.04760742 C-76.42681927 97.04948042 -74.6842044 97.05090013 -72.94158936 97.05189514 C-68.43075009 97.05565104 -63.9199448 97.065419 -59.40911865 97.07659912 C-54.77584289 97.08696531 -50.14256145 97.09142479 -45.50927734 97.09643555 C-36.47410644 97.10705009 -27.43896038 97.12403926 -18.40380859 97.14526367 C-18.40602921 96.353311 -18.40824982 95.56135834 -18.41053772 94.7454071 C-18.43088493 87.145572 -18.44595335 79.54575078 -18.45562077 71.9458952 C-18.46075847 68.04220572 -18.46768175 64.13853942 -18.47924805 60.23486328 C-18.52415063 44.64172554 -18.51340814 29.06259661 -17.96240234 13.47729492 C-17.92341324 12.33548264 -17.88442413 11.19367035 -17.84425354 10.01725769 C-17.80259567 8.98675797 -17.76093781 7.95625824 -17.71801758 6.89453125 C-17.6636277 5.54637077 -17.6636277 5.54637077 -17.60813904 4.17097473 C-17.40380859 2.14526367 -17.40380859 2.14526367 -16.40380859 1.14526367 C-10.90537846 0.28500881 -5.55709446 -0.00342706 0 0 Z " fill="#005F3B" transform="translate(321.40380859375,180.854736328125)"/>
<path d="M0 0 C0.14605736 6.94776332 0.28793742 13.89560399 0.42724609 20.84350586 C0.47484301 23.19476135 0.52331048 25.54599941 0.57275391 27.8972168 C0.85860972 41.52203847 1.06481925 55.13748438 0.97607422 68.76573181 C0.95357311 73.63274644 1.01582064 78.45248614 1.39686584 83.30577087 C1.45152512 84.02986649 1.50618439 84.7539621 1.5625 85.5 C1.69494362 87.2028994 1.69494362 87.2028994 1.83006287 88.94020081 C2.08040437 93.30915759 1.82678737 97.60791148 1.52734375 101.96875 C1.45283997 103.13422363 1.45283997 103.13422363 1.37683105 104.32324219 C1.25527322 106.21575945 1.12821528 108.10792212 1 110 C13.30010421 110.02316562 25.60020324 110.04093666 37.90032482 110.05181217 C43.61169899 110.05703174 49.32305824 110.06411264 55.03442383 110.07543945 C60.54572509 110.08630115 66.057012 110.09228382 71.56832314 110.09487724 C73.6714634 110.09672556 75.77460288 110.10033481 77.87773705 110.10573006 C80.82239864 110.11298399 83.76700083 110.11398909 86.71166992 110.11352539 C88.01718559 110.1189183 88.01718559 110.1189183 89.34907532 110.12442017 C93.4028666 110.11750814 97.02096944 109.83727108 101 109 C103.3125 109.9375 103.3125 109.9375 105 111 C105.79444826 137.29623751 103.84457922 160.96181019 85 181 C84.35933594 181.69351563 83.71867188 182.38703125 83.05859375 183.1015625 C76.45989905 189.58756602 68.32344581 193.21992448 60 197 C58.86433594 197.53625 57.72867188 198.0725 56.55859375 198.625 C42.72216306 203.97123886 27.02784313 203.23033148 12.44067383 203.08276367 C0.77653788 202.96768763 -10.86332494 203.14501915 -22.52444458 203.42605591 C-39.88315177 203.84003781 -57.24010566 204.12784222 -74.60394287 204.17724609 C-76.73127606 204.18404462 -78.85860125 204.19426033 -80.98590088 204.20800781 C-83.93469246 204.22574385 -86.88319291 204.23016422 -89.83203125 204.23046875 C-91.14254707 204.2411866 -91.14254707 204.2411866 -92.47953796 204.25212097 C-93.28397842 204.24908463 -94.08841888 204.24604828 -94.91723633 204.24291992 C-95.61327469 204.24434494 -96.30931305 204.24576996 -97.02644348 204.24723816 C-99.34667137 203.95657059 -100.97570218 203.14255661 -103 202 C-103.02337283 189.50650431 -103.04104026 177.01301399 -103.05181217 164.51950073 C-103.05698724 158.71562924 -103.06398466 152.91177292 -103.07543945 147.10791016 C-103.08646261 141.48629613 -103.09231708 135.86469652 -103.09487724 130.24307251 C-103.09669707 128.11935195 -103.1002486 125.99563199 -103.10573006 123.87191772 C-103.29236106 48.42764125 -103.29236106 48.42764125 -78.125 21.625 C-73.25250077 16.90382062 -68.07634045 13.92256253 -62 11 C-61.36964844 10.63390625 -60.73929688 10.2678125 -60.08984375 9.890625 C-43.33597471 0.31698555 -18.82423683 -0.07579962 0 0 Z " fill="#005F3B" transform="translate(187,268)"/>
<path d="M0 0 C2.13688318 0.22493507 4.27331043 0.45606579 6.40576172 0.71972656 C9.75224865 1.08127061 13.08234648 1.18526527 16.44506836 1.28955078 C34.83307316 1.88984942 54.25003619 4.20733444 68 18 C68 18.66 68 19.32 68 20 C68.66 20 69.32 20 70 20 C89.16668367 41.62001918 90.34152123 67.76762107 90.23046875 95.28515625 C90.22927177 97.28136668 90.22882488 99.27757768 90.2290802 101.27378845 C90.22752982 105.4261333 90.21935299 109.57839017 90.20581055 113.73071289 C90.18881214 119.00398389 90.18499758 124.27715894 90.18575573 129.55045414 C90.18548144 133.66272364 90.17995921 137.77497294 90.17275429 141.88723564 C90.16961423 143.82973517 90.16761139 145.77223693 90.16686058 147.71473885 C90.15729991 159.51370751 89.84205703 171.22985498 89 183 C89.66 183.33 90.32 183.66 91 184 C90.34 184 89.68 184 89 184 C89 188.29 89 192.58 89 197 C87.35 197.33 85.7 197.66 84 198 C83.67 198.66 83.34 199.32 83 200 C83 199.34 83 198.68 83 198 C82.42998858 198.00699732 81.85997717 198.01399464 81.27269268 198.02120399 C67.31298072 198.19180005 53.3531723 198.34995677 39.39316845 198.49477577 C32.64183088 198.56510384 25.89058424 198.63942794 19.1394043 198.72363281 C12.61015415 198.80464747 6.08086573 198.87472058 -0.4485836 198.93757248 C-2.92536348 198.96326652 -5.40210746 198.99273928 -7.87879372 199.02626419 C-36.5909996 199.40933439 -68.59971261 199.2126235 -90.59155273 177.84887695 C-103.18117121 165.2392776 -110.30570444 152.45559703 -112.6875 134.6875 C-112.81487549 133.77266846 -112.94225098 132.85783691 -113.07348633 131.9152832 C-113.95530145 125.23158588 -114.37699699 118.74405723 -114 112 C-114.66 111.67 -115.32 111.34 -116 111 C-115.505 110.01 -115.505 110.01 -115 109 C-114.7275833 106.44014782 -114.55435019 103.88070064 -114.37890625 101.3125 C-114 99 -114 99 -112 97 C-110.14531517 96.75390434 -110.14531517 96.75390434 -107.84921265 96.75949097 C-106.97980545 96.75674164 -106.11039825 96.75399231 -105.21464539 96.75115967 C-103.78074211 96.7619455 -103.78074211 96.7619455 -102.31787109 96.77294922 C-101.31296127 96.77265717 -100.30805145 96.77236511 -99.27268982 96.77206421 C-95.93951893 96.77346144 -92.60656951 96.78904118 -89.2734375 96.8046875 C-86.96701174 96.80841623 -84.6605844 96.81126386 -82.35415649 96.81326294 C-76.27465464 96.82091041 -70.19524789 96.84056846 -64.11578369 96.8626709 C-57.91574388 96.88310537 -51.71568875 96.89225952 -45.515625 96.90234375 C-33.34370815 96.9238133 -21.17186197 96.95796265 -9 97 C-9.00444122 95.85629944 -9.00888245 94.71259888 -9.01345825 93.53424072 C-9.05397712 82.76328073 -9.08397133 71.99233617 -9.10362434 61.22131729 C-9.11406775 55.6836454 -9.12823718 50.14603496 -9.15087891 44.60839844 C-9.17258732 39.26567733 -9.18456443 33.9230154 -9.18975449 28.5802536 C-9.19345383 26.54047463 -9.20067759 24.50069895 -9.21146011 22.46094513 C-9.22594835 19.60702988 -9.22797905 16.75336009 -9.22705078 13.89941406 C-9.23424133 13.05352722 -9.24143188 12.20764038 -9.24884033 11.33612061 C-9.22387528 4.2570207 -9.22387528 4.2570207 -7 1 C-5.5459375 1.0309375 -5.5459375 1.0309375 -4.0625 1.0625 C-1.12534105 1.35618499 -1.12534105 1.35618499 0 0 Z " fill="#005F3C" transform="translate(417,377)"/>
<path d="M0 0 C2.03689024 8.46681134 1.15366303 17.89656774 1.125 26.5625 C1.1234491 27.39561707 1.12189819 28.22873413 1.12030029 29.08709717 C1.10491529 36.39159047 1.056552 43.69572059 1 51 C0.99202393 52.03156094 0.99202393 52.03156094 0.98388672 53.08396149 C0.90261667 63.45325723 0.80056927 73.82221264 0.68060303 84.19113159 C0.64290916 87.46220304 0.60911314 90.73327825 0.57867432 94.00442505 C0.54169271 97.92998813 0.49518873 101.85533735 0.44206238 105.78071404 C0.42377986 107.23489781 0.40849834 108.68912329 0.3966217 110.14337349 C0.28916097 122.81617862 -0.32039928 135.77845443 -4.4375 147.875 C-4.68338867 148.60895996 -4.92927734 149.34291992 -5.18261719 150.09912109 C-8.33926931 158.82360191 -13.33521079 166.6876087 -19 174 C-19.66 174 -20.32 174 -21 174 C-21.38865234 174.88751953 -21.38865234 174.88751953 -21.78515625 175.79296875 C-27.2026205 185.6349858 -40.32365435 191.6717865 -50.4375 195.3125 C-51.43801392 195.67613647 -51.43801392 195.67613647 -52.45874023 196.04711914 C-63.10423246 199.65854976 -74.35942059 200.46869552 -85.5 201.3125 C-87.37171875 201.47975586 -87.37171875 201.47975586 -89.28125 201.65039062 C-90.4775 201.74126953 -91.67375 201.83214844 -92.90625 201.92578125 C-93.98197266 202.01255127 -95.05769531 202.09932129 -96.16601562 202.1887207 C-99.41101255 201.97262985 -100.6515621 201.1823617 -103 199 C-102.83544815 198.37225174 -102.6708963 197.74450348 -102.50135803 197.09773254 C-101.81483705 192.85593675 -101.91647078 188.72497391 -101.97827148 184.4362793 C-101.98787903 183.47969925 -101.99748657 182.5231192 -102.00738525 181.53755188 C-102.0403051 178.38303097 -102.0806642 175.2286516 -102.12109375 172.07421875 C-102.14540171 169.88418575 -102.16924494 167.69414754 -102.19264221 165.50410461 C-102.25541577 159.74520939 -102.32450152 153.98640652 -102.39489746 148.2276001 C-102.46564165 142.34904173 -102.5304222 136.470418 -102.59570312 130.59179688 C-102.72462876 119.06112606 -102.86022224 107.53054401 -103 96 C-104.29541718 96.0004985 -105.59083435 96.00099701 -106.92550659 96.00151062 C-123.31040452 96.00600885 -139.69466072 95.99611768 -156.07913399 95.86790943 C-160.58684502 95.8332457 -165.09419978 95.8084573 -169.60205078 95.80444336 C-174.02265947 95.80017626 -178.44250896 95.77190866 -182.86288071 95.72656822 C-184.53500838 95.71360426 -186.20722665 95.70928166 -187.87939835 95.71384621 C-190.19795971 95.71872034 -192.51423885 95.69283233 -194.83251953 95.65942383 C-196.14817902 95.65276199 -197.4638385 95.64610016 -198.81936646 95.63923645 C-202 95 -202 95 -203.92944336 92.59016418 C-204.98780414 90.02950734 -205.33206415 88.53790383 -205.1796875 85.8046875 C-205.12155884 84.62181152 -205.12155884 84.62181152 -205.06225586 83.41503906 C-205.00046143 82.57682617 -204.93866699 81.73861328 -204.875 80.875 C-204.81642822 79.99553711 -204.75785645 79.11607422 -204.69750977 78.20996094 C-204.49559075 75.46973639 -204.2556411 72.73570459 -204 70 C-203.92539551 69.16436523 -203.85079102 68.32873047 -203.77392578 67.46777344 C-202.28883744 52.26459913 -197.26351695 36.95909757 -186 26 C-185.34 26 -184.68 26 -184 26 C-183.80277344 25.44183594 -183.60554688 24.88367188 -183.40234375 24.30859375 C-181.4288788 21.05979768 -178.62783363 19.19771385 -175.5625 17.0625 C-174.93577393 16.62156006 -174.30904785 16.18062012 -173.66333008 15.72631836 C-147.86094663 -2.00318822 -116.19796024 0.60480265 -86.36621094 0.85229492 C-78.7958857 0.91226428 -71.22540718 0.94573875 -63.65492249 0.97806168 C-61.04619769 0.99178022 -58.43763718 1.01338834 -55.82897949 1.03634644 C-47.48206942 1.09503923 -39.25752785 0.94588434 -30.93579102 0.22512817 C-26.4536824 -0.11857781 -21.99156325 -0.07152171 -17.5 0 C-12.52358545 0.07632538 -4.12386099 -2.06193049 0 0 Z " fill="#005F3C" transform="translate(612,173)"/>
<path d="M0 0 C0.82371094 0.05526855 1.64742188 0.11053711 2.49609375 0.16748047 C23.86097788 1.77897707 43.00323157 9.60093376 58 25 C58.68964844 25.69222656 59.37929688 26.38445312 60.08984375 27.09765625 C75.0817964 43.07376334 79.02554752 65.9844251 79.125 87.0625 C79.13213013 88.35039429 79.13213013 88.35039429 79.1394043 89.66430664 C79.12257333 95.87742667 79.12257333 95.87742667 78 97 C76.63391674 97.09535213 75.26294545 97.1218867 73.89353943 97.12025452 C73.00867859 97.12162918 72.12381775 97.12300385 71.21214294 97.12442017 C69.74479454 97.11902725 69.74479454 97.11902725 68.24780273 97.11352539 C67.2235318 97.11367142 66.19926086 97.11381744 65.14395142 97.1139679 C61.74047771 97.11326828 58.33705796 97.10547363 54.93359375 97.09765625 C52.58089732 97.09579224 50.2282005 97.09436826 47.87550354 97.09336853 C41.66943295 97.08954199 35.4633856 97.07971055 29.25732422 97.06866455 C22.93001622 97.05845334 16.60270448 97.05387154 10.27539062 97.04882812 C-2.14974982 97.0380884 -14.57487298 97.02101036 -27 97 C-26.97101624 98.31070465 -26.94203247 99.6214093 -26.91217041 100.97183228 C-25.79545969 151.73608559 -25.79545969 151.73608559 -25.75976562 169.44628906 C-25.75298048 171.48115441 -25.73877242 173.5160031 -25.71875 175.55078125 C-25.68871979 178.62512408 -25.67780639 181.69896599 -25.671875 184.7734375 C-25.6595282 185.6843515 -25.6471814 186.5952655 -25.63446045 187.53378296 C-25.64355469 190.03662109 -25.64355469 190.03662109 -26 194 C-29.8157502 196.54383347 -32.89099027 196.30237589 -37.3125 196.25 C-38.14628174 196.24250732 -38.98006348 196.23501465 -39.83911133 196.22729492 C-61.09578542 195.87508307 -83.97988579 194.4436749 -101 180 C-101 179.34 -101 178.68 -101 178 C-101.99 177.67 -102.98 177.34 -104 177 C-124.5497709 155.1209607 -125.99499124 125.39492648 -126.125 96.8125 C-126.12983398 95.84578369 -126.13466797 94.87906738 -126.13964844 93.88305664 C-126.12483674 87.40770108 -125.85221234 80.97078493 -125.4921875 74.5078125 C-124.96856852 64.90900262 -124.91325076 55.34594718 -124.98196411 45.73532104 C-125.14889606 20.99691003 -125.14889606 20.99691003 -124.5625 8.9375 C-124.52318359 8.10677979 -124.48386719 7.27605957 -124.44335938 6.42016602 C-124.13936085 1.13936085 -124.13936085 1.13936085 -123 0 C-120.75774203 -0.0771928 -118.51302612 -0.08275602 -116.26953125 -0.0625 C-114.77596123 -0.05395123 -113.28239019 -0.04557883 -111.78881836 -0.03735352 C-110.98217743 -0.03115997 -110.1755365 -0.02496643 -109.3444519 -0.01858521 C-92.87173671 0.10232894 -76.41935694 -0.11814981 -59.95083618 -0.48519897 C-39.93956808 -0.92549033 -19.98636353 -1.3533906 0 0 Z " fill="#005F3C" transform="translate(319,73)"/>
<path d="M0 0 C0.14605736 6.94776332 0.28793742 13.89560399 0.42724609 20.84350586 C0.47484301 23.19476135 0.52331048 25.54599941 0.57275391 27.8972168 C0.85860972 41.52203847 1.06481925 55.13748438 0.97607422 68.76573181 C0.95357311 73.63274644 1.01582064 78.45248614 1.39686584 83.30577087 C1.45152512 84.02986649 1.50618439 84.7539621 1.5625 85.5 C1.69494362 87.2028994 1.69494362 87.2028994 1.83006287 88.94020081 C2.08040437 93.30915759 1.82678737 97.60791148 1.52734375 101.96875 C1.45283997 103.13422363 1.45283997 103.13422363 1.37683105 104.32324219 C1.25527322 106.21575945 1.12821528 108.10792212 1 110 C13.30010421 110.02316562 25.60020324 110.04093666 37.90032482 110.05181217 C43.61169899 110.05703174 49.32305824 110.06411264 55.03442383 110.07543945 C60.54572509 110.08630115 66.057012 110.09228382 71.56832314 110.09487724 C73.6714634 110.09672556 75.77460288 110.10033481 77.87773705 110.10573006 C80.82239864 110.11298399 83.76700083 110.11398909 86.71166992 110.11352539 C88.01718559 110.1189183 88.01718559 110.1189183 89.34907532 110.12442017 C93.4028666 110.11750814 97.02096944 109.83727108 101 109 C103.3125 109.9375 103.3125 109.9375 105 111 C105.79444826 137.29623751 103.84457922 160.96181019 85 181 C84.35933594 181.69351563 83.71867188 182.38703125 83.05859375 183.1015625 C76.45989905 189.58756602 68.32344581 193.21992448 60 197 C58.86433594 197.53625 57.72867188 198.0725 56.55859375 198.625 C42.72216306 203.97123886 27.02784313 203.23033148 12.44067383 203.08276367 C0.77653788 202.96768763 -10.86332494 203.14501915 -22.52444458 203.42605591 C-39.88315177 203.84003781 -57.24010566 204.12784222 -74.60394287 204.17724609 C-76.73127606 204.18404462 -78.85860125 204.19426033 -80.98590088 204.20800781 C-83.93469246 204.22574385 -86.88319291 204.23016422 -89.83203125 204.23046875 C-91.14254707 204.2411866 -91.14254707 204.2411866 -92.47953796 204.25212097 C-93.28397842 204.24908463 -94.08841888 204.24604828 -94.91723633 204.24291992 C-95.61327469 204.24434494 -96.30931305 204.24576996 -97.02644348 204.24723816 C-99.34667137 203.95657059 -100.97570218 203.14255661 -103 202 C-103.02337283 189.50650431 -103.04104026 177.01301399 -103.05181217 164.51950073 C-103.05698724 158.71562924 -103.06398466 152.91177292 -103.07543945 147.10791016 C-103.08646261 141.48629613 -103.09231708 135.86469652 -103.09487724 130.24307251 C-103.09669707 128.11935195 -103.1002486 125.99563199 -103.10573006 123.87191772 C-103.29236106 48.42764125 -103.29236106 48.42764125 -78.125 21.625 C-73.25250077 16.90382062 -68.07634045 13.92256253 -62 11 C-61.36964844 10.63390625 -60.73929688 10.2678125 -60.08984375 9.890625 C-43.33597471 0.31698555 -18.82423683 -0.07579962 0 0 Z M-31 26.1875 C-31.77778809 26.3205957 -32.55557617 26.45369141 -33.35693359 26.59082031 C-48.35270212 29.37161622 -59.87798954 36.7709292 -69 49 C-78.91824959 65.66467318 -78.28770389 83.71714026 -78.1953125 102.4609375 C-78.19157505 104.70537184 -78.18873154 106.94980782 -78.18673706 109.19424438 C-78.17915824 115.05656565 -78.15956013 120.91878533 -78.1373291 126.78106689 C-78.11674575 132.78111396 -78.10770882 138.78117769 -78.09765625 144.78125 C-78.07630801 156.52087758 -78.0422428 168.26043029 -78 180 C-58.19363006 180.0362914 -38.38777114 179.98196259 -18.58204651 179.81609344 C-13.79638075 179.77644456 -9.01090847 179.74427788 -4.22509766 179.72900391 C0.49186164 179.71370828 5.20833744 179.67910935 9.92507935 179.63169098 C11.69169908 179.61708912 13.45838727 179.60897151 15.22506714 179.60811615 C35.67596181 179.58820069 54.35003016 176.2852556 69.6484375 161.58203125 C82.15683673 147.84772578 80 129.6353007 80 112 C53.27 112 26.54 112 -1 112 C-1 83.29 -1 54.58 -1 25 C-16.14258349 24.69568426 -16.14258349 24.69568426 -31 26.1875 Z " fill="#48AE4F" transform="translate(187,268)"/>
<path d="M0 0 C2.03689024 8.46681134 1.15366303 17.89656774 1.125 26.5625 C1.1234491 27.39561707 1.12189819 28.22873413 1.12030029 29.08709717 C1.10491529 36.39159047 1.056552 43.69572059 1 51 C0.99202393 52.03156094 0.99202393 52.03156094 0.98388672 53.08396149 C0.90261667 63.45325723 0.80056927 73.82221264 0.68060303 84.19113159 C0.64290916 87.46220304 0.60911314 90.73327825 0.57867432 94.00442505 C0.54169271 97.92998813 0.49518873 101.85533735 0.44206238 105.78071404 C0.42377986 107.23489781 0.40849834 108.68912329 0.3966217 110.14337349 C0.28916097 122.81617862 -0.32039928 135.77845443 -4.4375 147.875 C-4.68338867 148.60895996 -4.92927734 149.34291992 -5.18261719 150.09912109 C-8.33926931 158.82360191 -13.33521079 166.6876087 -19 174 C-19.66 174 -20.32 174 -21 174 C-21.38865234 174.88751953 -21.38865234 174.88751953 -21.78515625 175.79296875 C-27.2026205 185.6349858 -40.32365435 191.6717865 -50.4375 195.3125 C-51.43801392 195.67613647 -51.43801392 195.67613647 -52.45874023 196.04711914 C-63.10423246 199.65854976 -74.35942059 200.46869552 -85.5 201.3125 C-87.37171875 201.47975586 -87.37171875 201.47975586 -89.28125 201.65039062 C-90.4775 201.74126953 -91.67375 201.83214844 -92.90625 201.92578125 C-93.98197266 202.01255127 -95.05769531 202.09932129 -96.16601562 202.1887207 C-99.41101255 201.97262985 -100.6515621 201.1823617 -103 199 C-102.83544815 198.37225174 -102.6708963 197.74450348 -102.50135803 197.09773254 C-101.81483705 192.85593675 -101.91647078 188.72497391 -101.97827148 184.4362793 C-101.98787903 183.47969925 -101.99748657 182.5231192 -102.00738525 181.53755188 C-102.0403051 178.38303097 -102.0806642 175.2286516 -102.12109375 172.07421875 C-102.14540171 169.88418575 -102.16924494 167.69414754 -102.19264221 165.50410461 C-102.25541577 159.74520939 -102.32450152 153.98640652 -102.39489746 148.2276001 C-102.46564165 142.34904173 -102.5304222 136.470418 -102.59570312 130.59179688 C-102.72462876 119.06112606 -102.86022224 107.53054401 -103 96 C-104.29541718 96.0004985 -105.59083435 96.00099701 -106.92550659 96.00151062 C-123.31040452 96.00600885 -139.69466072 95.99611768 -156.07913399 95.86790943 C-160.58684502 95.8332457 -165.09419978 95.8084573 -169.60205078 95.80444336 C-174.02265947 95.80017626 -178.44250896 95.77190866 -182.86288071 95.72656822 C-184.53500838 95.71360426 -186.20722665 95.70928166 -187.87939835 95.71384621 C-190.19795971 95.71872034 -192.51423885 95.69283233 -194.83251953 95.65942383 C-196.14817902 95.65276199 -197.4638385 95.64610016 -198.81936646 95.63923645 C-202 95 -202 95 -203.92944336 92.59016418 C-204.98780414 90.02950734 -205.33206415 88.53790383 -205.1796875 85.8046875 C-205.12155884 84.62181152 -205.12155884 84.62181152 -205.06225586 83.41503906 C-205.00046143 82.57682617 -204.93866699 81.73861328 -204.875 80.875 C-204.81642822 79.99553711 -204.75785645 79.11607422 -204.69750977 78.20996094 C-204.49559075 75.46973639 -204.2556411 72.73570459 -204 70 C-203.92539551 69.16436523 -203.85079102 68.32873047 -203.77392578 67.46777344 C-202.28883744 52.26459913 -197.26351695 36.95909757 -186 26 C-185.34 26 -184.68 26 -184 26 C-183.80277344 25.44183594 -183.60554688 24.88367188 -183.40234375 24.30859375 C-181.4288788 21.05979768 -178.62783363 19.19771385 -175.5625 17.0625 C-174.93577393 16.62156006 -174.30904785 16.18062012 -173.66333008 15.72631836 C-147.86094663 -2.00318822 -116.19796024 0.60480265 -86.36621094 0.85229492 C-78.7958857 0.91226428 -71.22540718 0.94573875 -63.65492249 0.97806168 C-61.04619769 0.99178022 -58.43763718 1.01338834 -55.82897949 1.03634644 C-47.48206942 1.09503923 -39.25752785 0.94588434 -30.93579102 0.22512817 C-26.4536824 -0.11857781 -21.99156325 -0.07152171 -17.5 0 C-12.52358545 0.07632538 -4.12386099 -2.06193049 0 0 Z M-79.35214138 24.23571491 C-83.86031368 24.28062662 -88.36838774 24.31992732 -92.87670898 24.34643555 C-97.31898039 24.37270598 -101.76092395 24.41319725 -106.20298958 24.46318626 C-107.86716702 24.47960813 -109.5313999 24.49127322 -111.19564629 24.49761391 C-130.89441634 24.58048679 -150.95951323 26.92018304 -166 41 C-166.63550781 41.59425781 -167.27101563 42.18851563 -167.92578125 42.80078125 C-181.41384708 56.75096496 -179 74.50444173 -179 93 C-152.93 93 -126.86 93 -100 93 C-100 121.05 -100 149.1 -100 178 C-64.76970032 175.79687392 -64.76970032 175.79687392 -37 157 C-29.63725774 148.22339781 -27.44721346 138.90331254 -25 128 C-24.82018082 127.29768753 -24.64036163 126.59537506 -24.45509338 125.8717804 C-23.7928986 121.69312594 -23.86974414 117.56864593 -23.88647461 113.34448242 C-23.88625557 111.89498199 -23.88625557 111.89498199 -23.8860321 110.41619873 C-23.88672752 107.22926573 -23.8945026 104.04239152 -23.90234375 100.85546875 C-23.90420925 98.64301078 -23.90563253 96.4305524 -23.90663147 94.21809387 C-23.91044628 88.40006364 -23.92026775 82.58205844 -23.93133545 76.76403809 C-23.94157182 70.82511738 -23.94613386 64.88619262 -23.95117188 58.94726562 C-23.96189093 47.2981661 -23.97895494 35.64908513 -24 24 C-42.45201321 23.98164219 -60.901057 24.05129743 -79.35214138 24.23571491 Z " fill="#4BAF52" transform="translate(612,173)"/>
<path d="M0 0 C2.13688318 0.22493507 4.27331043 0.45606579 6.40576172 0.71972656 C9.75224865 1.08127061 13.08234648 1.18526527 16.44506836 1.28955078 C34.83307316 1.88984942 54.25003619 4.20733444 68 18 C68 18.66 68 19.32 68 20 C68.66 20 69.32 20 70 20 C89.16668367 41.62001918 90.34152123 67.76762107 90.23046875 95.28515625 C90.22927177 97.28136668 90.22882488 99.27757768 90.2290802 101.27378845 C90.22752982 105.4261333 90.21935299 109.57839017 90.20581055 113.73071289 C90.18881214 119.00398389 90.18499758 124.27715894 90.18575573 129.55045414 C90.18548144 133.66272364 90.17995921 137.77497294 90.17275429 141.88723564 C90.16961423 143.82973517 90.16761139 145.77223693 90.16686058 147.71473885 C90.15729991 159.51370751 89.84205703 171.22985498 89 183 C89.66 183.33 90.32 183.66 91 184 C90.34 184 89.68 184 89 184 C89 188.29 89 192.58 89 197 C87.35 197.33 85.7 197.66 84 198 C83.67 198.66 83.34 199.32 83 200 C83 199.34 83 198.68 83 198 C82.42998858 198.00699732 81.85997717 198.01399464 81.27269268 198.02120399 C67.31298072 198.19180005 53.3531723 198.34995677 39.39316845 198.49477577 C32.64183088 198.56510384 25.89058424 198.63942794 19.1394043 198.72363281 C12.61015415 198.80464747 6.08086573 198.87472058 -0.4485836 198.93757248 C-2.92536348 198.96326652 -5.40210746 198.99273928 -7.87879372 199.02626419 C-36.5909996 199.40933439 -68.59971261 199.2126235 -90.59155273 177.84887695 C-103.18117121 165.2392776 -110.30570444 152.45559703 -112.6875 134.6875 C-112.81487549 133.77266846 -112.94225098 132.85783691 -113.07348633 131.9152832 C-113.95530145 125.23158588 -114.37699699 118.74405723 -114 112 C-114.66 111.67 -115.32 111.34 -116 111 C-115.505 110.01 -115.505 110.01 -115 109 C-114.7275833 106.44014782 -114.55435019 103.88070064 -114.37890625 101.3125 C-114 99 -114 99 -112 97 C-110.14531517 96.75390434 -110.14531517 96.75390434 -107.84921265 96.75949097 C-106.97980545 96.75674164 -106.11039825 96.75399231 -105.21464539 96.75115967 C-103.78074211 96.7619455 -103.78074211 96.7619455 -102.31787109 96.77294922 C-101.31296127 96.77265717 -100.30805145 96.77236511 -99.27268982 96.77206421 C-95.93951893 96.77346144 -92.60656951 96.78904118 -89.2734375 96.8046875 C-86.96701174 96.80841623 -84.6605844 96.81126386 -82.35415649 96.81326294 C-76.27465464 96.82091041 -70.19524789 96.84056846 -64.11578369 96.8626709 C-57.91574388 96.88310537 -51.71568875 96.89225952 -45.515625 96.90234375 C-33.34370815 96.9238133 -21.17186197 96.95796265 -9 97 C-9.00444122 95.85629944 -9.00888245 94.71259888 -9.01345825 93.53424072 C-9.05397712 82.76328073 -9.08397133 71.99233617 -9.10362434 61.22131729 C-9.11406775 55.6836454 -9.12823718 50.14603496 -9.15087891 44.60839844 C-9.17258732 39.26567733 -9.18456443 33.9230154 -9.18975449 28.5802536 C-9.19345383 26.54047463 -9.20067759 24.50069895 -9.21146011 22.46094513 C-9.22594835 19.60702988 -9.22797905 16.75336009 -9.22705078 13.89941406 C-9.23424133 13.05352722 -9.24143188 12.20764038 -9.24884033 11.33612061 C-9.22387528 4.2570207 -9.22387528 4.2570207 -7 1 C-5.5459375 1.0309375 -5.5459375 1.0309375 -4.0625 1.0625 C-1.12534105 1.35618499 -1.12534105 1.35618499 0 0 Z M-7 22 C-7 47.41 -7 72.82 -7 99 C-34.39 99 -61.78 99 -90 99 C-90.56430506 131.80231313 -90.56430506 131.80231313 -74.8125 158.625 C-58.66803803 174.07793642 -36.81380231 175.34650063 -15.546875 175.23046875 C-14.11224408 175.22926879 -12.67761236 175.2288255 -11.24298096 175.2290802 C-8.25470961 175.22753173 -5.26656079 175.21938232 -2.27832031 175.20581055 C1.45912248 175.18900695 5.19643061 175.18507459 8.93390656 175.18563652 C27.64563082 175.18487906 46.30412209 174.78441539 65 174 C65.04684065 159.83050473 65.08191453 145.66102157 65.10362434 131.49146461 C65.1140458 124.91143731 65.12817515 118.33146215 65.15087891 111.75146484 C65.17266558 105.39723577 65.18458095 99.04305674 65.18975449 92.68879318 C65.19343978 90.26880481 65.20063618 87.84881906 65.21146011 85.42885208 C65.2260523 82.03014531 65.2279747 78.63164339 65.22705078 75.23291016 C65.23783661 73.74396744 65.23783661 73.74396744 65.24884033 72.22494507 C65.20484231 57.19309323 60.82097199 45.08576538 50.27734375 34.12109375 C34.522729 19.44741311 13.25009884 22 -7 22 Z " fill="#4AAE52" transform="translate(417,377)"/>
<path d="M0 0 C0.82371094 0.05526855 1.64742188 0.11053711 2.49609375 0.16748047 C23.86097788 1.77897707 43.00323157 9.60093376 58 25 C58.68964844 25.69222656 59.37929688 26.38445312 60.08984375 27.09765625 C75.0817964 43.07376334 79.02554752 65.9844251 79.125 87.0625 C79.13213013 88.35039429 79.13213013 88.35039429 79.1394043 89.66430664 C79.12257333 95.87742667 79.12257333 95.87742667 78 97 C76.63391674 97.09535213 75.26294545 97.1218867 73.89353943 97.12025452 C73.00867859 97.12162918 72.12381775 97.12300385 71.21214294 97.12442017 C69.74479454 97.11902725 69.74479454 97.11902725 68.24780273 97.11352539 C67.2235318 97.11367142 66.19926086 97.11381744 65.14395142 97.1139679 C61.74047771 97.11326828 58.33705796 97.10547363 54.93359375 97.09765625 C52.58089732 97.09579224 50.2282005 97.09436826 47.87550354 97.09336853 C41.66943295 97.08954199 35.4633856 97.07971055 29.25732422 97.06866455 C22.93001622 97.05845334 16.60270448 97.05387154 10.27539062 97.04882812 C-2.14974982 97.0380884 -14.57487298 97.02101036 -27 97 C-26.97101624 98.31070465 -26.94203247 99.6214093 -26.91217041 100.97183228 C-25.79545969 151.73608559 -25.79545969 151.73608559 -25.75976562 169.44628906 C-25.75298048 171.48115441 -25.73877242 173.5160031 -25.71875 175.55078125 C-25.68871979 178.62512408 -25.67780639 181.69896599 -25.671875 184.7734375 C-25.6595282 185.6843515 -25.6471814 186.5952655 -25.63446045 187.53378296 C-25.64355469 190.03662109 -25.64355469 190.03662109 -26 194 C-29.8157502 196.54383347 -32.89099027 196.30237589 -37.3125 196.25 C-38.14628174 196.24250732 -38.98006348 196.23501465 -39.83911133 196.22729492 C-61.09578542 195.87508307 -83.97988579 194.4436749 -101 180 C-101 179.34 -101 178.68 -101 178 C-101.99 177.67 -102.98 177.34 -104 177 C-124.5497709 155.1209607 -125.99499124 125.39492648 -126.125 96.8125 C-126.12983398 95.84578369 -126.13466797 94.87906738 -126.13964844 93.88305664 C-126.12483674 87.40770108 -125.85221234 80.97078493 -125.4921875 74.5078125 C-124.96856852 64.90900262 -124.91325076 55.34594718 -124.98196411 45.73532104 C-125.14889606 20.99691003 -125.14889606 20.99691003 -124.5625 8.9375 C-124.52318359 8.10677979 -124.48386719 7.27605957 -124.44335938 6.42016602 C-124.13936085 1.13936085 -124.13936085 1.13936085 -123 0 C-120.75774203 -0.0771928 -118.51302612 -0.08275602 -116.26953125 -0.0625 C-114.77596123 -0.05395123 -113.28239019 -0.04557883 -111.78881836 -0.03735352 C-110.98217743 -0.03115997 -110.1755365 -0.02496643 -109.3444519 -0.01858521 C-92.87173671 0.10232894 -76.41935694 -0.11814981 -59.95083618 -0.48519897 C-39.93956808 -0.92549033 -19.98636353 -1.3533906 0 0 Z M-53.32062149 23.2070713 C-68.88094954 23.44256695 -84.44052388 23.71360103 -100 24 C-100.06972105 37.59613112 -100.12292324 51.19221921 -100.15543652 64.78849316 C-100.17104663 71.10279372 -100.19219957 77.41697134 -100.22631836 83.73120117 C-100.25907813 89.83258067 -100.27688797 95.93384241 -100.28463173 102.03530312 C-100.29014551 104.35513472 -100.30091204 106.67496039 -100.31719017 108.99474144 C-100.44201266 127.53183081 -100.25944264 145.60761292 -86.6875 159.9375 C-69.85458479 175.52979834 -50.44076931 173 -28 173 C-28 147.26 -28 121.52 -28 95 C-0.61 95 26.78 95 55 95 C54.84038745 66.25303251 54.84038745 66.25303251 42 42 C41.45085937 41.38125 40.90171875 40.7625 40.3359375 40.125 C24.05178102 24.05605264 -0.30045544 22.67603637 -21.875 22.6875 C-26.06299896 22.72864373 -30.24928042 22.80053522 -34.43652344 22.88818359 C-40.73083466 23.01963943 -47.02567052 23.11213653 -53.32062149 23.2070713 Z " fill="#48AE50" transform="translate(319,73)"/>
<path d="M0 0 C1.19662262 -0.00503792 1.19662262 -0.00503792 2.41741943 -0.01017761 C5.02650551 -0.01959658 7.63552694 -0.02162528 10.24462891 -0.02270508 C12.06686428 -0.025921 13.88909939 -0.02928532 15.71133423 -0.03279114 C19.51557007 -0.03875752 23.31978325 -0.04063331 27.12402344 -0.04003906 C32.00674454 -0.0399369 36.88932199 -0.05365599 41.7720089 -0.07081127 C45.5276863 -0.08189987 49.28332843 -0.08395934 53.03902054 -0.08342934 C54.84041469 -0.08461163 56.64180969 -0.08904727 58.44318771 -0.0967617 C60.95181346 -0.10651 63.46011961 -0.10370559 65.96875 -0.09765625 C66.71575165 -0.10327576 67.4627533 -0.10889526 68.23239136 -0.11468506 C73.36786674 -0.08306099 73.36786674 -0.08306099 75.59619141 2.14526367 C77.59180051 10.8365222 76.76008959 20.47502703 76.76416016 29.36010742 C76.76738086 31.02340218 76.77074551 32.68669666 76.77424622 34.34999084 C76.78020424 37.82203833 76.78208946 41.29406105 76.78149414 44.76611328 C76.78139249 49.18828554 76.79506246 53.61029734 76.81226635 58.0324316 C76.82344787 61.46335056 76.8254115 64.8942314 76.82488441 68.3251667 C76.82605459 69.95444862 76.83042143 71.58373184 76.83821678 73.21299553 C76.87650093 82.03723803 76.66113533 90.50663487 74.59619141 99.14526367 C75.25619141 98.81526367 75.91619141 98.48526367 76.59619141 98.14526367 C77.95741167 98.06089192 79.32272455 98.03802591 80.68652344 98.04760742 C81.96627548 98.05249428 81.96627548 98.05249428 83.2718811 98.05747986 C84.20648163 98.06582352 85.14108215 98.07416718 86.10400391 98.08276367 C88.12548772 98.09144042 90.14697213 98.09997931 92.16845703 98.10839844 C93.23749268 98.11461212 94.30652832 98.12082581 95.40795898 98.12722778 C112.97658881 98.22286425 130.53267088 98.15419821 148.09619141 97.70776367 C148.92781799 97.6880249 149.75944458 97.66828613 150.61627197 97.64794922 C158.65057242 97.45333362 166.62235769 97.23343593 174.59619141 96.14526367 C176.81667556 99.4759899 176.96409059 101.02689809 177.26416016 104.94995117 C177.35246094 106.09077148 177.44076172 107.2315918 177.53173828 108.40698242 C177.61488281 109.59936523 177.69802734 110.79174805 177.78369141 112.02026367 C177.8784375 113.20491211 177.97318359 114.38956055 178.07080078 115.61010742 C178.72839372 124.51522098 178.72839372 124.51522098 178.10270691 127.49708557 C177.58181176 130.22044372 177.49561737 132.65323124 177.53027344 135.42285156 C177.54003204 136.45064224 177.54979065 137.47843292 177.55984497 138.53736877 C177.58170364 140.18599159 177.58170364 140.18599159 177.60400391 141.86791992 C177.62151385 144.20320208 177.63842273 146.53848881 177.65478516 148.8737793 C177.68580202 152.54977024 177.72141457 156.22553345 177.76757812 159.90136719 C177.80983668 163.45274744 177.8333305 167.00385738 177.85400391 170.55541992 C177.88193527 172.20707909 177.88193527 172.20707909 177.91043091 173.8921051 C177.91388519 174.91674362 177.91733948 175.94138214 177.92089844 176.99707031 C177.9354155 178.34678673 177.9354155 178.34678673 177.95022583 179.72377014 C177.52325454 182.64413086 176.60813437 184.01574248 174.59619141 186.14526367 C172.57495117 186.49169922 172.57495117 186.49169922 170.28759766 186.28198242 C169.45808594 186.21946289 168.62857422 186.15694336 167.77392578 186.0925293 C166.47938477 185.96394531 166.47938477 185.96394531 165.15869141 185.83276367 C163.45210931 185.68553416 161.74507629 185.54342175 160.03759766 185.40698242 C159.28164307 185.33439209 158.52568848 185.26180176 157.74682617 185.18701172 C155.50269053 185.14344864 153.75160812 185.56214898 151.59619141 186.14526367 C149.94542869 186.03789699 148.29794144 185.86753486 146.65869141 185.64526367 C143.73078977 185.29752169 141.69247087 185.12600778 138.78369141 185.70776367 C135.87264259 186.28997344 134.21544781 185.41747392 131.59619141 184.14526367 C131.26619141 184.80526367 130.93619141 185.46526367 130.59619141 186.14526367 C130.08056641 185.98026367 129.56494141 185.81526367 129.03369141 185.64526367 C124.71909989 184.76021926 120.77492992 184.75235083 116.59619141 186.14526367 C113.68185603 186.25456962 110.79215066 186.30931595 107.87744141 186.31323242 C107.02315552 186.31656082 106.16886963 186.31988922 105.28869629 186.32331848 C103.48315977 186.32837921 101.67761391 186.33072707 99.87207031 186.33056641 C97.10677763 186.33275529 94.34188238 186.35092643 91.57666016 186.36987305 C89.82275527 186.37280663 88.06884849 186.37479166 86.31494141 186.37573242 C85.48675903 186.38291794 84.65857666 186.39010345 83.80529785 186.39750671 C79.88592959 186.38186467 77.93137038 186.36871632 74.59619141 184.14526367 C74.87359208 188.25052606 75.17054345 192.35414349 75.47119141 196.45776367 C75.54982422 197.62500977 75.62845703 198.79225586 75.70947266 199.99487305 C75.79326172 201.11313477 75.87705078 202.23139648 75.96337891 203.38354492 C76.07335205 204.93102417 76.07335205 204.93102417 76.18554688 206.50976562 C76.4421152 209.36913686 76.4421152 209.36913686 78.59619141 212.14526367 C79.22119141 214.33276367 79.22119141 214.33276367 79.59619141 216.14526367 C78.93619141 216.47526367 78.27619141 216.80526367 77.59619141 217.14526367 C76.94064021 219.67259602 76.94064021 219.67259602 76.59619141 222.14526367 C77.58619141 222.14526367 78.57619141 222.14526367 79.59619141 222.14526367 C79.59619141 223.46526367 79.59619141 224.78526367 79.59619141 226.14526367 C78.93619141 226.47526367 78.27619141 226.80526367 77.59619141 227.14526367 C76.42767591 232.69216508 76.4940827 238.15821316 76.56884766 243.80541992 C76.58148794 245.6693504 76.59384934 247.53328278 76.60595703 249.3972168 C76.63079485 252.30914383 76.65884241 255.22096944 76.69213867 258.1328125 C76.7224078 260.96118806 76.74012907 263.78943375 76.75634766 266.61791992 C76.77653709 267.91657738 76.77653709 267.91657738 76.7971344 269.24147034 C76.81633733 273.88952316 76.68609033 277.8819357 74.59619141 282.14526367 C71.00415281 284.45493676 68.49886341 284.03266329 64.331604 283.45605469 C58.73624442 282.82032336 53.08894574 282.92346647 47.46337891 282.86401367 C46.09969426 282.84591354 44.73601625 282.82730807 43.37234497 282.80822754 C39.07201619 282.74904306 34.77161828 282.69674774 30.47119141 282.64526367 C25.4995219 282.58542145 20.52791871 282.52256565 15.55636978 282.4533844 C13.59433253 282.42741956 11.63223288 282.40630998 9.6701355 282.38537598 C0.94550639 282.26690367 -7.70582423 281.80434633 -16.40380859 281.14526367 C-16.40380859 280.81526367 -16.40380859 280.48526367 -16.40380859 280.14526367 C13.29619141 280.14526367 42.99619141 280.14526367 73.59619141 280.14526367 C73.59619141 248.13526367 73.59619141 216.12526367 73.59619141 183.14526367 C107.25619141 183.14526367 140.91619141 183.14526367 175.59619141 183.14526367 C175.59619141 155.75526367 175.59619141 128.36526367 175.59619141 100.14526367 C141.93619141 100.14526367 108.27619141 100.14526367 73.59619141 100.14526367 C73.59619141 67.80526367 73.59619141 35.46526367 73.59619141 2.14526367 C43.89619141 2.14526367 14.19619141 2.14526367 -16.40380859 2.14526367 C-16.40380859 1.81526367 -16.40380859 1.48526367 -16.40380859 1.14526367 C-10.89200873 0.36654604 -5.56214993 -0.00343018 0 0 Z " fill="#B5CBC3" transform="translate(321.40380859375,180.854736328125)"/>
<path d="M0 0 C0.33 0 0.66 0 1 0 C0.67 11.88 0.34 23.76 0 36 C33.66 36 67.32 36 102 36 C102 71.31 102 106.62 102 143 C124.01813585 141.18431309 124.01813585 141.18431309 146 139 C138.09609694 144.2692687 125.73873105 143.61274442 116.5 144.3125 C114.62828125 144.47975586 114.62828125 144.47975586 112.71875 144.65039062 C111.5225 144.74126953 110.32625 144.83214844 109.09375 144.92578125 C108.01802734 145.01255127 106.94230469 145.09932129 105.83398438 145.1887207 C102.58898745 144.97262985 101.3484379 144.1823617 99 142 C99.16455185 141.37225174 99.3291037 140.74450348 99.49864197 140.09773254 C100.18516295 135.85593675 100.08352922 131.72497391 100.02172852 127.4362793 C100.01212097 126.47969925 100.00251343 125.5231192 99.99261475 124.53755188 C99.9596949 121.38303097 99.9193358 118.2286516 99.87890625 115.07421875 C99.85459829 112.88418575 99.83075506 110.69414754 99.80735779 108.50410461 C99.74458423 102.74520939 99.67549848 96.98640652 99.60510254 91.2276001 C99.53435835 85.34904173 99.4695778 79.470418 99.40429688 73.59179688 C99.27537124 62.06112606 99.13977776 50.53054401 99 39 C97.70458282 39.0004985 96.40916565 39.00099701 95.07449341 39.00151062 C78.68959548 39.00600885 62.30533928 38.99611768 45.92086601 38.86790943 C41.41315498 38.8332457 36.90580022 38.8084573 32.39794922 38.80444336 C27.97734053 38.80017626 23.55749104 38.77190866 19.13711929 38.72656822 C17.46499162 38.71360426 15.79277335 38.70928166 14.12060165 38.71384621 C11.80204029 38.71872034 9.48576115 38.69283233 7.16748047 38.65942383 C5.85182098 38.65276199 4.5361615 38.64610016 3.18063354 38.63923645 C0 38 0 38 -1.93043518 35.59611511 C-3.01655849 32.9598082 -3.31794939 31.41078299 -3.14453125 28.59375 C-3.07770142 27.36253418 -3.07770142 27.36253418 -3.00952148 26.10644531 C-2.94450439 25.24631836 -2.8794873 24.38619141 -2.8125 23.5 C-2.75715088 22.61666992 -2.70180176 21.73333984 -2.64477539 20.82324219 C-2.16410817 13.80920309 -1.29923984 6.91246049 0 0 Z " fill="#CFDFDA" transform="translate(410,230)"/>
<path d="M0 0 C0.33 0.66 0.66 1.32 1 2 C0.15984779 3.8696345 -0.77434736 5.69736559 -1.75 7.5 C-11.23886867 26.01647289 -10.32584779 46.04812166 -10.40471697 66.3678329 C-10.42052631 69.91523621 -10.44725796 73.46255837 -10.4727478 77.00990295 C-10.5192247 83.70299025 -10.55611746 90.39609337 -10.58942068 97.08925778 C-10.63507601 106.15091108 -10.69583337 115.21246296 -10.75566864 124.27403164 C-10.84931916 138.51596982 -10.92304873 152.7579391 -11 167 C21.34 167 53.68 167 87 167 C87 167.33 87 167.66 87 168 C62.79020059 168.59480427 38.57960976 169.10747535 14.36181641 169.17724609 C12.24900958 169.18407104 10.13621097 169.19431391 8.0234375 169.20800781 C5.07153325 169.2257566 2.11991981 169.2301644 -0.83203125 169.23046875 C-2.14280388 169.2411866 -2.14280388 169.2411866 -3.48005676 169.25212097 C-4.28432602 169.24908463 -5.08859528 169.24604828 -5.91723633 169.24291992 C-6.61327469 169.24434494 -7.30931305 169.24576996 -8.02644348 169.24723816 C-10.34667137 168.95657059 -11.97570218 168.14255661 -14 167 C-14.02337283 154.50650431 -14.04104026 142.01301399 -14.05181217 129.51950073 C-14.05698724 123.71562924 -14.06398466 117.91177292 -14.07543945 112.10791016 C-14.08646261 106.48629613 -14.09231708 100.86469652 -14.09487724 95.24307251 C-14.09669707 93.11935195 -14.1002486 90.99563199 -14.10573006 88.87191772 C-14.28206112 17.59131918 -14.28206112 17.59131918 0 0 Z " fill="#C8E1CA" transform="translate(98,303)"/>
<path d="M0 0 C0.33 0 0.66 0 1 0 C1 31.68 1 63.36 1 96 C-33.65 96 -68.3 96 -104 96 C-103.96683001 125.31594921 -103.96683001 125.31594921 -100 143 C-100.495 144.98 -100.495 144.98 -101 147 C-103.31756867 142.17341133 -103.89926673 137.1845747 -104.625 131.9375 C-104.75688721 131.00462158 -104.88877441 130.07174316 -105.0246582 129.1105957 C-105.93164529 122.35362982 -106.38126848 115.82046939 -106 109 C-106.66 108.67 -107.32 108.34 -108 108 C-107.505 107.01 -107.505 107.01 -107 106 C-106.7275833 103.44014782 -106.55435019 100.88070064 -106.37890625 98.3125 C-106 96 -106 96 -104 94 C-102.14531517 93.75390434 -102.14531517 93.75390434 -99.84921265 93.75949097 C-98.97980545 93.75674164 -98.11039825 93.75399231 -97.21464539 93.75115967 C-95.78074211 93.7619455 -95.78074211 93.7619455 -94.31787109 93.77294922 C-93.31296127 93.77265717 -92.30805145 93.77236511 -91.27268982 93.77206421 C-87.93951893 93.77346144 -84.60656951 93.78904118 -81.2734375 93.8046875 C-78.96701174 93.80841623 -76.6605844 93.81126386 -74.35415649 93.81326294 C-68.27465464 93.82091041 -62.19524789 93.84056846 -56.11578369 93.8626709 C-49.91574388 93.88310537 -43.71568875 93.89225952 -37.515625 93.90234375 C-25.34370815 93.9238133 -13.17186197 93.95796265 -1 94 C-1.00222061 92.85185822 -1.00444122 91.70371643 -1.00672913 90.52078247 C-1.02696897 79.71975623 -1.04197622 68.91873382 -1.05181217 58.11769295 C-1.05703885 52.56429379 -1.06413261 47.0109099 -1.07543945 41.45751953 C-1.08627595 36.10184453 -1.09227846 30.74618423 -1.09487724 25.39049911 C-1.09673011 23.34349206 -1.10034809 21.29648584 -1.10573006 19.24948502 C-1.11295057 16.3904265 -1.11399051 13.5314294 -1.11352539 10.67236328 C-1.11712067 9.81928589 -1.12071594 8.9662085 -1.12442017 8.08728027 C-1.11405216 2.22810432 -1.11405216 2.22810432 0 0 Z " fill="#E4EAE9" transform="translate(409,380)"/>
<path d="M0 0 C0.33 0 0.66 0 1 0 C1 27.39 1 54.78 1 83 C35.32 83 69.64 83 105 83 C105 115.01 105 147.02 105 180 C104.67 180 104.34 180 104 180 C103.84388657 171.30503072 103.69578651 162.60996807 103.5570364 153.91470432 C103.49232802 149.8741328 103.42518386 145.83363702 103.35180664 141.79321289 C103.00909833 122.81860388 102.90829281 103.95852192 104 85 C103.37828918 85.07105453 102.75657837 85.14210907 102.11602783 85.21531677 C91.7248968 86.24965956 81.35124759 86.12613713 70.921875 86.09765625 C68.89878372 86.09578777 66.87569199 86.0943659 64.8526001 86.09336853 C59.56568114 86.08957718 54.27879029 86.07977634 48.99188232 86.06866455 C43.58183167 86.05837715 38.1717764 86.05385531 32.76171875 86.04882812 C22.17446691 86.03815056 11.58723581 86.02111548 1 86 C-0.88864785 81.24109104 -1.25031951 77.02873709 -1.13525391 71.97509766 C-1.12579239 71.19393585 -1.11633087 70.41277405 -1.10658264 69.60794067 C-1.07308381 67.04306717 -1.0249207 64.4786952 -0.9765625 61.9140625 C-0.95037688 60.12903122 -0.92511137 58.34398623 -0.90072632 56.55892944 C-0.83425653 51.87345956 -0.75532484 47.18828006 -0.67376709 42.50305176 C-0.59266978 37.71699115 -0.52340013 32.93076083 -0.453125 28.14453125 C-0.31363687 18.76281745 -0.16097849 9.38136794 0 0 Z " fill="#CFDFDA" transform="translate(200,281)"/>
<path d="M0 0 C0.33 0 0.66 0 1 0 C1.0501123 0.74161377 1.10022461 1.48322754 1.15185547 2.24731445 C1.38375913 5.60308137 1.62921531 8.95772243 1.875 12.3125 C1.95363281 13.47974609 2.03226562 14.64699219 2.11328125 15.84960938 C2.19707031 16.96787109 2.28085937 18.08613281 2.3671875 19.23828125 C2.47716064 20.7857605 2.47716064 20.7857605 2.58935547 22.36450195 C2.8459238 25.22387319 2.8459238 25.22387319 5 28 C5.625 30.1875 5.625 30.1875 6 32 C5.01 32.495 5.01 32.495 4 33 C3.34444881 35.52733235 3.34444881 35.52733235 3 38 C3.99 38 4.98 38 6 38 C6 39.32 6 40.64 6 42 C5.01 42.495 5.01 42.495 4 43 C2.8314845 48.5469014 2.89789129 54.01294949 2.97265625 59.66015625 C2.98529654 61.52408673 2.99765793 63.38801911 3.00976562 65.25195312 C3.03460345 68.16388016 3.06265101 71.07570577 3.09594727 73.98754883 C3.12621639 76.81592439 3.14393767 79.64417008 3.16015625 82.47265625 C3.18034569 83.77131371 3.18034569 83.77131371 3.20094299 85.09620667 C3.22014592 89.74425949 3.08989893 93.73667203 1 98 C-2.5920386 100.30967309 -5.097328 99.88739962 -9.2645874 99.31079102 C-14.85994698 98.67505969 -20.50724567 98.7782028 -26.1328125 98.71875 C-27.49649714 98.70064987 -28.86017516 98.6820444 -30.22384644 98.66296387 C-34.52417521 98.60377939 -38.82457313 98.55148407 -43.125 98.5 C-48.0966695 98.44015778 -53.0682727 98.37730198 -58.03982162 98.30812073 C-60.00185888 98.28215589 -61.96395853 98.26104631 -63.92605591 98.2401123 C-72.65068501 98.12164 -81.30201564 97.65908266 -90 97 C-90 96.67 -90 96.34 -90 96 C-60.3 96 -30.6 96 0 96 C0 64.32 0 32.64 0 0 Z " fill="#F7F7F8" transform="translate(395,365)"/>
<path d="M0 0 C1.65 0 3.3 0 5 0 C5.14605736 6.94776332 5.28793742 13.89560399 5.42724609 20.84350586 C5.47484301 23.19476135 5.52331048 25.54599941 5.57275391 27.8972168 C5.85860972 41.52203847 6.06481925 55.13748438 5.97607422 68.76573181 C5.95357311 73.63274644 6.01582064 78.45248614 6.39686584 83.30577087 C6.45152512 84.02986649 6.50618439 84.7539621 6.5625 85.5 C6.65079575 86.63526627 6.73909149 87.77053253 6.83006287 88.94020081 C7.08040437 93.30915759 6.82678737 97.60791148 6.52734375 101.96875 C6.47767456 102.74573242 6.42800537 103.52271484 6.37683105 104.32324219 C6.25527322 106.21575945 6.12821528 108.10792212 6 110 C18.30010421 110.02316562 30.60020324 110.04093666 42.90032482 110.05181217 C48.61169899 110.05703174 54.32305824 110.06411264 60.03442383 110.07543945 C65.54572509 110.08630115 71.057012 110.09228382 76.56832314 110.09487724 C78.6714634 110.09672556 80.77460288 110.10033481 82.87773705 110.10573006 C85.82239864 110.11298399 88.76700083 110.11398909 91.71166992 110.11352539 C93.01718559 110.1189183 93.01718559 110.1189183 94.34907532 110.12442017 C98.4028666 110.11750814 102.02096944 109.83727108 106 109 C108.3125 109.9375 108.3125 109.9375 110 111 C110.05888242 115.10410468 110.09388921 119.20809827 110.125 123.3125 C110.14175781 124.46041016 110.15851563 125.60832031 110.17578125 126.79101562 C110.21714715 134.09209743 109.6033331 140.87357302 108 148 C107.67 148 107.34 148 107 148 C107.66 136.12 108.32 124.24 109 112 C74.35 112 39.7 112 4 112 C4 75.37 4 38.74 4 1 C2.68 0.67 1.36 0.34 0 0 Z " fill="#F0EFF0" transform="translate(182,268)"/>
<path d="M0 0 C34.98 0 69.96 0 106 0 C106 0.33 106 0.66 106 1 C71.35 1 36.7 1 1 1 C1.33 16.84 1.66 32.68 2 49 C2.22523772 66.0054477 2.22523772 66.0054477 2.24023438 73.44628906 C2.24701952 75.48115441 2.26122758 77.5160031 2.28125 79.55078125 C2.31128021 82.62512408 2.32219361 85.69896599 2.328125 88.7734375 C2.3404718 89.6843515 2.3528186 90.5952655 2.36553955 91.53378296 C2.35644531 94.03662109 2.35644531 94.03662109 2 98 C-1.81630753 100.54420502 -4.89063082 100.30108361 -9.3125 100.25 C-10.55338379 100.24202393 -10.55338379 100.24202393 -11.81933594 100.23388672 C-18.48575566 100.13581462 -25.10944701 99.70541111 -31.75 99.125 C-33.12345581 99.00753418 -33.12345581 99.00753418 -34.5246582 98.88769531 C-39.57704275 98.40123497 -44.17099812 97.57008531 -49 96 C-49 95.67 -49 95.34 -49 95 C-45.04 95.33 -41.08 95.66 -37 96 C-18.685 96.495 -18.685 96.495 0 97 C0 64.99 0 32.98 0 0 Z " fill="#FEFDFE" transform="translate(291,169)"/>
<path d="M0 0 C0.33 0 0.66 0 1 0 C1 32.34 1 64.68 1 98 C-33.32 98 -67.64 98 -103 98 C-100.06230894 95.06230894 -96.88544886 95.52522008 -92.92578125 95.37890625 C-92.02596024 95.34116592 -91.12613922 95.3034256 -90.1990509 95.26454163 C-74.12398851 94.69309278 -58.01904179 94.89137605 -41.93664551 94.93133545 C-37.30998191 94.94171006 -32.68331259 94.94616285 -28.05664062 94.95117188 C-19.03774571 94.96177976 -10.01887573 94.97876393 -1 95 C-1.00222061 94.20804733 -1.00444122 93.41609467 -1.00672913 92.60014343 C-1.02707633 85.00030833 -1.04214476 77.40048711 -1.05181217 69.80063152 C-1.05694987 65.89694205 -1.06387316 61.99327575 -1.07543945 58.08959961 C-1.13141035 38.6980816 -0.92004219 19.37437868 0 0 Z " fill="#DFE7E5" transform="translate(304,183)"/>
<path d="M0 0 C-0.33 0.99 -0.66 1.98 -1 3 C-35.32 3 -69.64 3 -105 3 C-104.67 2.01 -104.34 1.02 -104 0 C-102.86224121 0.00652588 -101.72448242 0.01305176 -100.55224609 0.01977539 C-90.7938272 0.05718683 -81.04509918 -0.03120827 -71.2890625 -0.25390625 C-70.18758881 -0.27883652 -69.08611511 -0.30376678 -67.95126343 -0.32945251 C-65.67382726 -0.38114681 -63.39639197 -0.43287968 -61.11895752 -0.48464966 C-40.7034439 -0.93953633 -20.39618705 -1.15762143 0 0 Z " fill="#56B35E" transform="translate(319,73)"/>
<path d="M0 0 C1.19662262 -0.00503792 1.19662262 -0.00503792 2.41741943 -0.01017761 C5.02650551 -0.01959658 7.63552694 -0.02162528 10.24462891 -0.02270508 C12.06686428 -0.025921 13.88909939 -0.02928532 15.71133423 -0.03279114 C19.51557007 -0.03875752 23.31978325 -0.04063331 27.12402344 -0.04003906 C32.00674454 -0.0399369 36.88932199 -0.05365599 41.7720089 -0.07081127 C45.5276863 -0.08189987 49.28332843 -0.08395934 53.03902054 -0.08342934 C54.84041469 -0.08461163 56.64180969 -0.08904727 58.44318771 -0.0967617 C60.95181346 -0.10651 63.46011961 -0.10370559 65.96875 -0.09765625 C66.71575165 -0.10327576 67.4627533 -0.10889526 68.23239136 -0.11468506 C73.36786674 -0.08306099 73.36786674 -0.08306099 75.59619141 2.14526367 C77.59180051 10.8365222 76.76008959 20.47502703 76.76416016 29.36010742 C76.76738086 31.02340218 76.77074551 32.68669666 76.77424622 34.34999084 C76.78020424 37.82203833 76.78208946 41.29406105 76.78149414 44.76611328 C76.78139249 49.18828554 76.79506246 53.61029734 76.81226635 58.0324316 C76.82344787 61.46335056 76.8254115 64.8942314 76.82488441 68.3251667 C76.82605459 69.95444862 76.83042143 71.58373184 76.83821678 73.21299553 C76.87650093 82.03723803 76.66113533 90.50663487 74.59619141 99.14526367 C74.26619141 99.14526367 73.93619141 99.14526367 73.59619141 99.14526367 C73.59619141 67.13526367 73.59619141 35.12526367 73.59619141 2.14526367 C43.89619141 2.14526367 14.19619141 2.14526367 -16.40380859 2.14526367 C-16.40380859 1.81526367 -16.40380859 1.48526367 -16.40380859 1.14526367 C-10.89200873 0.36654604 -5.56214993 -0.00343018 0 0 Z " fill="#EDEFEE" transform="translate(321.40380859375,180.854736328125)"/>
<path d="M0 0 C0.33 0 0.66 0 1 0 C1.33 45.21 1.66 90.42 2 137 C1.67 137 1.34 137 1 137 C-1.18232931 123.24920659 -2.08039648 109.72561239 -2.125 95.8125 C-2.12967285 94.84658936 -2.1343457 93.88067871 -2.13916016 92.88549805 C-2.12541589 86.40930322 -1.8522578 79.97160097 -1.4921875 73.5078125 C-0.96856524 63.9089425 -0.91308779 54.34573914 -0.98168945 44.73504639 C-1.0840398 29.79633027 -1.04634189 14.9103719 0 0 Z " fill="#FCF5FC" transform="translate(195,74)"/>
<path d="M0 0 C33.66 0 67.32 0 102 0 C101.67 0.99 101.34 1.98 101 3 C100.44538086 2.96447021 99.89076172 2.92894043 99.31933594 2.89233398 C96.79657727 2.73433185 94.27334539 2.58582437 91.75 2.4375 C90.87730469 2.38142578 90.00460937 2.32535156 89.10546875 2.26757812 C88.26113281 2.21923828 87.41679687 2.17089844 86.546875 2.12109375 C85.38430176 2.05039673 85.38430176 2.05039673 84.19824219 1.97827148 C81.96243588 2.0003713 80.15043728 2.42630621 78 3 C76.34923729 2.89263332 74.70175003 2.72227119 73.0625 2.5 C70.13459836 2.15225802 68.09627946 1.98074411 65.1875 2.5625 C62.27645118 3.14470976 60.6192564 2.27221025 58 1 C57.67 1.66 57.34 2.32 57 3 C56.484375 2.835 55.96875 2.67 55.4375 2.5 C51.12290849 1.61495559 47.17873852 1.60708716 43 3 C40.09747761 3.12125228 37.21973196 3.18816972 34.31640625 3.203125 C33.46449203 3.20882507 32.61257782 3.21452515 31.73484802 3.22039795 C29.93351481 3.22984008 28.13216438 3.23637881 26.33081055 3.24023438 C23.57635431 3.24995113 20.82264087 3.28098592 18.06835938 3.3125 C16.31771276 3.31902924 14.56706082 3.32428002 12.81640625 3.328125 C11.99338516 3.3404718 11.17036407 3.3528186 10.32240295 3.36553955 C9.55157883 3.36253845 8.7807547 3.35953735 7.98657227 3.35644531 C7.31167252 3.36009094 6.63677277 3.36373657 5.94142151 3.36749268 C4 3 4 3 0 0 Z " fill="#A7C6BB" transform="translate(395,364)"/>
<path d="M0 0 C0.33 0 0.66 0 1 0 C1.0501123 0.74161377 1.10022461 1.48322754 1.15185547 2.24731445 C1.38375913 5.60308137 1.62921531 8.95772243 1.875 12.3125 C1.95363281 13.47974609 2.03226562 14.64699219 2.11328125 15.84960938 C2.19707031 16.96787109 2.28085937 18.08613281 2.3671875 19.23828125 C2.47716064 20.7857605 2.47716064 20.7857605 2.58935547 22.36450195 C2.8459238 25.22387319 2.8459238 25.22387319 5 28 C5.625 30.1875 5.625 30.1875 6 32 C5.01 32.495 5.01 32.495 4 33 C3.34444881 35.52733235 3.34444881 35.52733235 3 38 C3.99 38 4.98 38 6 38 C6 39.32 6 40.64 6 42 C5.01 42.495 5.01 42.495 4 43 C2.9716526 48.03890228 2.91029649 52.88689982 3 58 C2.34 58 1.68 58 1 58 C1 70.54 1 83.08 1 96 C0.67 96 0.34 96 0 96 C0 64.32 0 32.64 0 0 Z " fill="#CFD7D4" transform="translate(395,365)"/>
<path d="M0 0 C1.65 0 3.3 0 5 0 C5.14605736 6.94776332 5.28793742 13.89560399 5.42724609 20.84350586 C5.47484301 23.19476135 5.52331048 25.54599941 5.57275391 27.8972168 C5.85857126 41.52020514 6.06485314 55.13382487 5.97607422 68.76023865 C5.95001653 74.39536225 6.12240864 79.94403633 6.5625 85.5625 C8.06445869 105.90331197 8.06445869 105.90331197 4 112 C4 75.37 4 38.74 4 1 C2.68 0.67 1.36 0.34 0 0 Z " fill="#BAD2C7" transform="translate(182,268)"/>
<path d="M0 0 C0.33 0 0.66 0 1 0 C2.93325915 11.54777117 3 22.09099231 3 34 C-32.31 34 -67.62 34 -104 34 C-104 33.67 -104 33.34 -104 33 C-69.35 33 -34.7 33 1 33 C1 25.74 1 18.48 1 11 C0.34 11 -0.32 11 -1 11 C-0.67 7.37 -0.34 3.74 0 0 Z " fill="#94B9A4" transform="translate(395,135)"/>
<path d="M0 0 C0.33 0 0.66 0 1 0 C0.67 11.88 0.34 23.76 0 36 C33.33 36 66.66 36 101 36 C101 36.33 101 36.66 101 37 C67.34 37 33.68 37 -1 37 C-2.85353188 33.29293624 -3.2515182 32.48188086 -3.046875 28.69140625 C-3.00554443 27.86737305 -2.96421387 27.04333984 -2.92163086 26.19433594 C-2.86499268 25.32583008 -2.80835449 24.45732422 -2.75 23.5625 C-2.6991626 22.6746582 -2.6483252 21.78681641 -2.59594727 20.87207031 C-2.15159459 13.83127987 -1.3039029 6.93726981 0 0 Z " fill="#87B29D" transform="translate(410,230)"/>
<path d="M0 0 C0.33 0 0.66 0 1 0 C1.07407906 4.23580253 1.12856696 8.47126341 1.16479492 12.70751953 C1.17989483 14.14899258 1.20037658 15.59041959 1.22631836 17.03173828 C1.2626513 19.10200343 1.27971329 21.17166207 1.29296875 23.2421875 C1.3086792 24.4885498 1.32438965 25.73491211 1.34057617 27.01904297 C1.17199097 28.4946167 1.17199097 28.4946167 1 30 C-2.81630753 32.54420502 -5.89063082 32.30108361 -10.3125 32.25 C-11.13975586 32.24468262 -11.96701172 32.23936523 -12.81933594 32.23388672 C-19.48575566 32.13581462 -26.10944701 31.70541111 -32.75 31.125 C-33.66563721 31.04668945 -34.58127441 30.96837891 -35.5246582 30.88769531 C-40.57704275 30.40123497 -45.17099812 29.57008531 -50 28 C-50 27.67 -50 27.34 -50 27 C-49.35708008 27.06566162 -48.71416016 27.13132324 -48.05175781 27.19897461 C-38.29439548 28.10965061 -28.54122408 28.33161936 -18.75 28.5625 C-17.02212743 28.60580223 -15.29426273 28.64941975 -13.56640625 28.69335938 C-9.37768593 28.79920327 -5.18888263 28.90079634 -1 29 C-1.00523682 28.3702124 -1.01047363 27.7404248 -1.01586914 27.09155273 C-1.03680138 24.20687885 -1.0497115 21.32222102 -1.0625 18.4375 C-1.07087891 17.44685547 -1.07925781 16.45621094 -1.08789062 15.43554688 C-1.10536914 10.17451301 -0.92308398 5.18235335 0 0 Z " fill="#E3E8E4" transform="translate(292,237)"/>
<path d="M0 0 C0.33 0 0.66 0 1 0 C1.36551617 4.22826603 1.71542664 8.45768335 2.0625 12.6875 C2.16626953 13.88568359 2.27003906 15.08386719 2.37695312 16.31835938 C2.47041016 17.47529297 2.56386719 18.63222656 2.66015625 19.82421875 C2.79369507 21.41882935 2.79369507 21.41882935 2.92993164 23.0456543 C3 26 3 26 2.50949097 28.35281372 C1.9839822 31.08322444 1.89292766 33.5316067 1.91821289 36.30932617 C1.9247438 37.34357224 1.93127472 38.3778183 1.93800354 39.44340515 C1.94943893 40.54876114 1.96087433 41.65411713 1.97265625 42.79296875 C1.98529438 45.13736836 1.99765593 47.48176948 2.00976562 49.82617188 C2.03466443 53.51982303 2.06273287 57.21339632 2.09594727 60.90698242 C2.12601853 64.47314981 2.14387717 68.03921562 2.16015625 71.60546875 C2.17361588 72.71689743 2.1870755 73.82832611 2.20094299 74.97343445 C2.20432175 75.99822403 2.2077005 77.02301361 2.21118164 78.07885742 C2.21863907 78.98310959 2.2260965 79.88736176 2.23377991 80.8190155 C2 83 2 83 0 85 C0 56.95 0 28.9 0 0 Z " fill="#FAF8FC" transform="translate(497,280)"/>
<path d="M0 0 C0.66 0 1.32 0 2 0 C2.33 19.47 2.66 38.94 3 59 C2.67 59 2.34 59 2 59 C-0.23323336 44.92846164 -1.08210828 31.11198571 -1.125 16.875 C-1.12967285 15.78340576 -1.1343457 14.69181152 -1.13916016 13.56713867 C-1.13706543 12.53177979 -1.1349707 11.4964209 -1.1328125 10.4296875 C-1.13168457 9.50397949 -1.13055664 8.57827148 -1.12939453 7.62451172 C-0.99958671 4.99161719 -0.58419445 2.5670908 0 0 Z " fill="#F3EDF3" transform="translate(194,152)"/>
<path d="M0 0 C7.59 0 15.18 0 23 0 C23 6.6 23 13.2 23 20 C13.43 20 3.86 20 -6 20 C-6 19.67 -6 19.34 -6 19 C2.91 19 11.82 19 21 19 C21 13.39 21 7.78 21 2 C14.07 1.67 7.14 1.34 0 1 C0 0.67 0 0.34 0 0 Z " fill="#32A43B" transform="translate(268,246)"/>
<path d="M0 0 C0.33 0 0.66 0 1 0 C1.66 3.63 2.32 7.26 3 11 C3.66 11 4.32 11 5 11 C4.21302675 14.41021743 3.12880057 17.68885166 2 21 C2.99 21 3.98 21 5 21 C5 22.32 5 23.64 5 25 C4.34 25.33 3.68 25.66 3 26 C2.5316735 28.58605332 2.5316735 28.58605332 2.375 31.5625 C2.30023438 32.57441406 2.22546875 33.58632813 2.1484375 34.62890625 C2.09945313 35.41136719 2.05046875 36.19382812 2 37 C1.34 37 0.68 37 0 37 C0 24.79 0 12.58 0 0 Z " fill="#FBF9FB" transform="translate(396,382)"/>
<path d="M0 0 C0.33 0 0.66 0 1 0 C1 4.95 1 9.9 1 15 C5.81983888 14.59214775 10.63960522 14.18356764 15.45922852 13.77319336 C17.09526079 13.63410402 18.7313279 13.49542382 20.36743164 13.35717773 C22.73333092 13.15719174 25.09909662 12.95568327 27.46484375 12.75390625 C28.18397446 12.6934462 28.90310516 12.63298615 29.64402771 12.57069397 C34.77342583 12.13115777 39.88499699 11.58400508 45 11 C37.09609694 16.2692687 24.73873105 15.61274442 15.5 16.3125 C14.2521875 16.42400391 13.004375 16.53550781 11.71875 16.65039062 C9.924375 16.78670898 9.924375 16.78670898 8.09375 16.92578125 C7.01802734 17.01255127 5.94230469 17.09932129 4.83398438 17.1887207 C2 17 2 17 -2 14 C-1.34 9.38 -0.68 4.76 0 0 Z " fill="#E7EAE7" transform="translate(511,358)"/>
<path d="M0 0 C0 0.33 0 0.66 0 1 C-5.23273331 1.04935824 -10.46533176 1.08569949 -15.69824219 1.10986328 C-17.47919067 1.11993431 -19.26012257 1.13359185 -21.04101562 1.15087891 C-23.59769783 1.17507913 -26.15416185 1.18647184 -28.7109375 1.1953125 C-29.50994476 1.20563507 -30.30895203 1.21595764 -31.13217163 1.22659302 C-33.0895722 1.22699226 -35.04643077 1.12241069 -37 1 C-37.66 0.34 -38.32 -0.32 -39 -1 C-25.89750376 -3.13918306 -13.02311559 -1.91667404 0 0 Z " fill="#57B25E" transform="translate(609,175)"/>
<path d="M0 0 C2.30430135 2.897221 3.97584247 5.81704075 5.625 9.125 C10.43686458 18.04774148 17.42264515 24.75707352 25.0546875 31.30859375 C26.78186644 32.81033769 28.405104 34.35996543 30 36 C23.85065441 34.65987986 20.64998943 31.18554569 16.4375 26.8125 C15.79103516 26.16474609 15.14457031 25.51699219 14.47851562 24.84960938 C9.42093891 19.69942189 4.9426368 14.30937797 1.6875 7.8125 C1.36136719 7.17957031 1.03523438 6.54664063 0.69921875 5.89453125 C0 4 0 4 0 0 Z " fill="#E8EAE8" transform="translate(309,527)"/>
<path d="M0 0 C0.495 1.485 0.495 1.485 1 3 C-15.5 3 -32 3 -49 3 C-49 2.67 -49 2.34 -49 2 C-47.20598755 1.96241577 -47.20598755 1.96241577 -45.37573242 1.92407227 C-40.94202805 1.82996148 -36.508479 1.72974964 -32.07495117 1.62768555 C-30.15539175 1.5843506 -28.23579415 1.54267448 -26.31616211 1.50268555 C-23.55831386 1.44494822 -20.80065759 1.38126365 -18.04296875 1.31640625 C-17.18350143 1.29969376 -16.32403412 1.28298126 -15.43852234 1.26576233 C-14.63791885 1.24581711 -13.83731537 1.22587189 -13.01245117 1.20532227 C-12.3085173 1.18977798 -11.60458344 1.1742337 -10.87931824 1.15821838 C-7.09970481 0.84001558 -3.91580239 -0.08701783 0 0 Z " fill="#F9F9F9" transform="translate(496,277)"/>
<path d="M0 0 C0.33 0 0.66 0 1 0 C0.67 12.21 0.34 24.42 0 37 C-3 34 -3 34 -3.28051758 31.93798828 C-3.23564209 31.15665527 -3.1907666 30.37532227 -3.14453125 29.5703125 C-3.09997803 28.69785889 -3.0554248 27.82540527 -3.00952148 26.92651367 C-2.91199585 25.5397644 -2.91199585 25.5397644 -2.8125 24.125 C-2.75715088 23.18567627 -2.70180176 22.24635254 -2.64477539 21.27856445 C-2.18124251 14.10519312 -1.35004728 7.06481053 0 0 Z " fill="#EFEFEF" transform="translate(410,230)"/>
<path d="M0 0 C2.12523203 0.22124538 4.24998409 0.44916347 6.37060547 0.7109375 C11.65101069 1.29143887 16.96576681 1.39890152 22.27148438 1.60546875 C27.56774978 1.83018228 32.74939525 2.2647928 38 3 C38 3.33 38 3.66 38 4 C23.15 3.67 8.3 3.34 -7 3 C-7 2.34 -7 1.68 -7 1 C-5.5459375 1.0309375 -5.5459375 1.0309375 -4.0625 1.0625 C-1.12534105 1.35618499 -1.12534105 1.35618499 0 0 Z " fill="#E4E9E5" transform="translate(417,377)"/>
<path d="M0 0 C3.24983 -0.08728882 6.4993575 -0.14048658 9.75 -0.1875 C11.13058594 -0.22520508 11.13058594 -0.22520508 12.5390625 -0.26367188 C13.42851562 -0.27333984 14.31796875 -0.28300781 15.234375 -0.29296875 C16.05131836 -0.3086792 16.86826172 -0.32438965 17.70996094 -0.34057617 C20 0 20 0 24 3 C16.08 3 8.16 3 0 3 C0 2.01 0 1.02 0 0 Z " fill="#76C27D" transform="translate(214,73)"/>
<path d="M0 0 C3.06185225 1.47109683 5.92497748 3.15041913 8.8125 4.9375 C12.78483848 7.34444287 16.6790634 9.30919872 21 11 C19.40625 11.703125 19.40625 11.703125 17 12 C13.90625 10.671875 13.90625 10.671875 10.5 8.75 C9.3759375 8.12609375 8.251875 7.5021875 7.09375 6.859375 C2.19474836 3.91502553 2.19474836 3.91502553 0 2 C0 1.34 0 0.68 0 0 Z " fill="#EDEDED" transform="translate(218,251)"/>
<path d="M0 0 C0.33 0.99 0.66 1.98 1 3 C-0.43359375 5.69921875 -0.43359375 5.69921875 -2.4375 8.6875 C-3.42556641 10.17830078 -3.42556641 10.17830078 -4.43359375 11.69921875 C-5.20896484 12.83810547 -5.20896484 12.83810547 -6 14 C-6.33 13.34 -6.66 12.68 -7 12 C-6.0625 9.375 -6.0625 9.375 -5 7 C-4.34 7 -3.68 7 -3 7 C-3.33 6.01 -3.66 5.02 -4 4 C-2.68 2.68 -1.36 1.36 0 0 Z " fill="#ADD4B0" transform="translate(603,327)"/>
<path d="M0 0 C1.9453125 -0.29296875 1.9453125 -0.29296875 4.125 -0.1875 C5.40375 -0.125625 6.6825 -0.06375 8 0 C7.34 1.32 6.68 2.64 6 4 C3.36 3.67 0.72 3.34 -2 3 C-1.34 2.01 -0.68 1.02 0 0 Z " fill="#E9E9E9" transform="translate(388,461)"/>
<path d="M0 0 C0.33 0 0.66 0 1 0 C2.32286246 4.96073422 2.08893197 9.91111512 2 15 C1.67 13.68 1.34 12.36 1 11 C0.34 11 -0.32 11 -1 11 C-0.67 7.37 -0.34 3.74 0 0 Z " fill="#BDDABF" transform="translate(395,135)"/>
<path d="M0 0 C0 0.66 0 1.32 0 2 C2.97 2.33 5.94 2.66 9 3 C9 3.33 9 3.66 9 4 C3.08739655 4.25706972 -2.23918159 3.2982126 -8 2 C-8 1.67 -8 1.34 -8 1 C-2.25 0 -2.25 0 0 0 Z " fill="#BCD9BE" transform="translate(365,570)"/>
<path d="M0 0 C0.66 0.33 1.32 0.66 2 1 C-0.46418338 5.80515759 -0.46418338 5.80515759 -3.0625 6.75 C-3.701875 6.8325 -4.34125 6.915 -5 7 C-5.99 7.495 -5.99 7.495 -7 8 C-5.50902342 4.2047869 -3.24299151 2.38957269 0 0 Z " fill="#87C68A" transform="translate(435,191)"/>
<path d="M0 0 C-1.43011973 0.86646667 -2.86940619 1.71781829 -4.3125 2.5625 C-5.51326172 3.27599609 -5.51326172 3.27599609 -6.73828125 4.00390625 C-9 5 -9 5 -12 4 C-11.360625 3.896875 -10.72125 3.79375 -10.0625 3.6875 C-9.381875 3.460625 -8.70125 3.23375 -8 3 C-7.67 2.01 -7.34 1.02 -7 0 C-2.25 -1.125 -2.25 -1.125 0 0 Z " fill="#BFDBC0" transform="translate(259,459)"/>
<path d="M0 0 C-3.06246747 1.78409802 -5.22079273 2.22880021 -8.75 2.125 C-9.54921875 2.10695313 -10.3484375 2.08890625 -11.171875 2.0703125 C-11.77515625 2.04710937 -12.3784375 2.02390625 -13 2 C-8.17638048 -0.49497561 -5.39223163 -1.07844633 0 0 Z " fill="#F8F7F8" transform="translate(390,462)"/>
<path d="M0 0 C4.43458973 1.3937282 6.87378374 3.60582235 10 7 C5.04303419 5.76075855 2.88341534 4.21422242 0 0 Z " fill="#F8EEF7" transform="translate(329,556)"/>
<path d="M0 0 C2.97 0.99 5.94 1.98 9 3 C8.01 3.66 7.02 4.32 6 5 C3.375 4.3125 3.375 4.3125 1 3 C0.67 2.01 0.34 1.02 0 0 Z " fill="#79C27D" transform="translate(463,383)"/>
<path d="" fill="#FFFFFF" transform="translate(0,0)"/>
<path d="" fill="#FFFFFF" transform="translate(0,0)"/>
<path d="" fill="#FFFFFF" transform="translate(0,0)"/>
<path d="" fill="#FFFFFF" transform="translate(0,0)"/>
</svg>
